<!DOCTYPE svg PUBLIC "-//W3C//DTD SVG 20010904//EN" "http://www.w3.org/TR/2001/REC-SVG-20010904/DTD/svg10.dtd">
<svg version="1.0" xmlns="http://www.w3.org/2000/svg" width="136px" height="122px" viewBox="0 0 1360 1220" preserveAspectRatio="xMidYMid meet">
<g id="layer1" fill="#bec0d8" stroke="none">
 <path d="M760 465 c0 -8 5 -15 10 -15 6 0 10 7 10 15 0 8 -4 15 -10 15 -5 0 -10 -7 -10 -15z"/>
 </g>
<g id="layer2" fill="#d5d8e9" stroke="none">
 <path d="M660 465 c0 -11 12 -15 50 -15 38 0 50 4 50 15 0 11 -12 15 -50 15 -38 0 -50 -4 -50 -15z"/>
 <path d="M667 142 c-19 -21 -22 -32 -7 -32 10 0 34 39 27 46 -2 2 -11 -4 -20 -14z"/>
 <path d="M777 103 c-4 -3 -7 -11 -7 -17 0 -6 5 -5 12 2 6 6 9 14 7 17 -3 3 -9 2 -12 -2z"/>
 <path d="M698 13 c7 -3 16 -2 19 1 4 3 -2 6 -13 5 -11 0 -14 -3 -6 -6z"/>
 </g>
<g id="layer3" fill="#392f13" stroke="none">
 <path d="M548 1093 c-24 -6 -26 -103 -3 -103 11 0 15 11 15 40 0 29 4 40 15 40 8 0 15 7 15 15 0 15 -9 17 -42 8z"/>
 <path d="M640 1085 c0 -8 5 -15 10 -15 6 0 10 7 10 15 0 8 -4 15 -10 15 -5 0 -10 -7 -10 -15z"/>
 <path d="M700 1085 c0 -8 9 -15 20 -15 11 0 20 7 20 15 0 8 -9 15 -20 15 -11 0 -20 -7 -20 -15z"/>
 <path d="M810 1085 c0 -9 9 -15 25 -15 16 0 25 6 25 15 0 9 -9 15 -25 15 -16 0 -25 -6 -25 -15z"/>
 <path d="M880 1085 c0 -8 9 -15 20 -15 11 0 20 7 20 15 0 8 -9 15 -20 15 -11 0 -20 -7 -20 -15z"/>
 <path d="M960 1085 c0 -9 9 -15 25 -15 16 0 25 6 25 15 0 9 -9 15 -25 15 -16 0 -25 -6 -25 -15z"/>
 <path d="M180 840 c0 -5 7 -10 15 -10 8 0 15 5 15 10 0 6 -7 10 -15 10 -8 0 -15 -4 -15 -10z"/>
 <path d="M180 720 c0 -5 7 -10 15 -10 8 0 15 5 15 10 0 6 -7 10 -15 10 -8 0 -15 -4 -15 -10z"/>
 <path d="M1184 694 c3 -9 6 -19 6 -22 0 -9 20 21 20 31 0 4 -7 7 -16 7 -11 0 -14 -5 -10 -16z"/>
 </g>
<g id="layer4" fill="#0a0c26" stroke="none">
 <path d="M693 1098 c2 -7 16 -13 32 -13 16 0 30 6 33 13 2 8 -8 12 -33 12 -25 0 -35 -4 -32 -12z"/>
 <path d="M793 1098 c2 -7 19 -13 37 -13 18 0 35 6 38 13 2 8 -9 12 -38 12 -29 0 -40 -4 -37 -12z"/>
 <path d="M987 1083 c-2 -4 -2 -27 1 -50 3 -29 9 -43 19 -43 11 0 13 11 11 47 -3 42 -19 67 -31 46z"/>
 <path d="M540 1035 c0 -33 4 -45 15 -45 11 0 15 12 15 45 0 33 -4 45 -15 45 -11 0 -15 -12 -15 -45z"/>
 <path d="M650 1035 c0 -33 4 -45 15 -45 11 0 15 12 15 45 0 33 -4 45 -15 45 -11 0 -15 -12 -15 -45z"/>
 <path d="M880 1040 c0 -29 4 -40 15 -40 11 0 15 11 15 40 0 29 -4 40 -15 40 -11 0 -15 -11 -15 -40z"/>
 <path d="M186 891 c-4 -5 -11 -34 -16 -63 -12 -64 7 -163 30 -163 16 0 16 9 0 73 -7 29 -7 55 0 85 6 23 12 48 13 56 2 17 -19 26 -27 12z"/>
 <path d="M1125 710 c-21 -23 -14 -46 19 -62 31 -13 56 3 56 36 0 45 -44 61 -75 26z m45 -25 c0 -8 -4 -15 -10 -15 -5 0 -10 7 -10 15 0 8 5 15 10 15 6 0 10 -7 10 -15z"/>
 <path d="M1083 483 c-7 -2 -13 -11 -13 -20 0 -10 6 -12 23 -7 28 8 30 10 22 23 -7 12 -13 12 -32 4z"/>
 </g>
<g id="layer5" fill="#1e2545" stroke="none">
 <path d="M535 988 c-3 -7 -4 -128 -3 -268 3 -219 5 -255 18 -255 13 0 15 36 15 264 0 203 -3 265 -12 268 -7 3 -15 -1 -18 -9z"/>
 <path d="M650 735 c0 -220 2 -255 15 -255 13 0 15 35 15 255 0 220 -2 255 -15 255 -13 0 -15 -35 -15 -255z"/>
 <path d="M7 814 c-4 -4 -7 -14 -7 -23 0 -11 3 -12 11 -4 6 6 10 16 7 23 -2 6 -7 8 -11 4z"/>
 <path d="M80 785 c0 -16 6 -25 15 -25 9 0 15 9 15 25 0 16 -6 25 -15 25 -9 0 -15 -9 -15 -25z"/>
 </g>
<g id="layer6" fill="#ffea00" stroke="none">
 <path d="M665 987 c-3 -7 -4 -125 -3 -262 3 -214 5 -250 18 -250 13 0 15 37 18 263 2 231 0 262 -13 262 -9 0 -18 -6 -20 -13z"/>
 <path d="M850 730 c0 -224 2 -260 15 -260 13 0 15 36 15 260 0 224 -2 260 -15 260 -13 0 -15 -36 -15 -260z"/>
 <path d="M1010 731 l0 -259 65 1 c41 1 65 6 65 13 0 24 -67 33 -88 12 -9 -9 -12 44 -12 240 0 217 -2 252 -15 252 -13 0 -15 -35 -15 -259z"/>
 <path d="M1122 727 c-28 -30 -28 -58 1 -85 32 -30 50 -28 81 9 32 38 32 44 1 74 -30 31 -55 32 -83 2z m67 -21 c18 -22 -4 -58 -32 -54 -37 5 -36 68 1 68 11 0 25 -6 31 -14z"/>
 </g>
<g id="layer7" fill="#333543" stroke="none">
 <path d="M688 1203 c7 -3 16 -2 19 1 4 3 -2 6 -13 5 -11 0 -14 -3 -6 -6z"/>
 <path d="M985 988 c-3 -7 -4 -126 -3 -263 3 -230 4 -250 21 -253 16 -3 17 13 15 259 -2 199 -6 263 -15 267 -7 2 -15 -2 -18 -10z"/>
 <path d="M880 730 c0 -224 2 -260 15 -260 13 0 15 36 15 260 0 224 -2 260 -15 260 -13 0 -15 -36 -15 -260z"/>
 <path d="M39 828 c-40 -27 -52 -74 -22 -84 10 -3 26 -10 35 -15 10 -5 26 -9 37 -9 16 0 18 7 17 62 -2 73 -14 81 -67 46z"/>
 </g>
<g id="layer8" fill="#c2c0c6" stroke="none">
 <path d="M650 475 c0 -8 5 -15 10 -15 6 0 10 7 10 15 0 8 -4 15 -10 15 -5 0 -10 -7 -10 -15z"/>
 <path d="M752 453 c-7 -21 -21 -92 -33 -158 -24 -137 -29 -149 -77 -191 -35 -30 -35 -30 -17 -57 13 -20 26 -27 49 -27 73 0 108 57 141 224 l24 127 -30 50 c-16 27 -29 54 -29 59 0 24 -18 6 -28 -27z"/>
 </g>
<g id="layer9" fill="#141519" stroke="none">
 <path d="M580 1155 c0 -52 -3 -65 -16 -65 -12 0 -14 -10 -12 -52 l3 -53 55 0 55 0 3 53 c2 31 -1 52 -7 52 -7 0 -11 26 -11 65 l0 65 -35 0 -35 0 0 -65z"/>
 <path d="M685 1197 c-17 -66 14 -125 53 -101 13 8 17 25 17 65 0 53 0 54 -32 57 -27 3 -33 -1 -38 -21z"/>
 <path d="M794 1207 c-11 -29 1 -100 19 -111 32 -20 52 4 52 65 0 54 0 54 -33 57 -21 2 -34 -2 -38 -11z"/>
 <path d="M907 1214 c-4 -4 -7 -36 -7 -71 0 -50 -3 -63 -16 -63 -12 0 -14 -10 -12 -47 l3 -48 65 0 65 0 3 37 c2 25 -3 43 -15 55 -13 13 -18 33 -18 78 0 60 0 60 -30 63 -17 2 -34 0 -38 -4z"/>
 <path d="M128 869 l-38 -19 0 -71 0 -70 46 -19 c25 -11 49 -18 53 -16 4 3 6 51 6 108 -2 116 -5 121 -67 87z"/>
 <path d="M1140 705 c-13 -16 -4 -55 13 -55 25 1 49 28 42 49 -7 24 -37 28 -55 6z"/>
 <path d="M633 493 c-20 -8 -15 -23 7 -23 11 0 20 7 20 15 0 15 -6 17 -27 8z"/>
 <path d="M1060 469 c1 -33 69 -128 118 -164 22 -16 41 -35 41 -41 1 -19 37 -44 63 -44 57 0 81 83 32 115 -16 10 -35 14 -51 10 -20 -5 -32 2 -66 37 -23 24 -51 55 -62 70 -11 15 -32 30 -47 34 -25 5 -28 3 -28 -17z"/>
 </g>
<g id="layer10" fill="#3a393e" stroke="none">
 <path d="M557 994 c-4 -4 -7 -124 -7 -266 0 -290 -3 -281 72 -256 l43 15 0 254 0 254 -50 3 c-28 2 -54 0 -58 -4z"/>
 <path d="M888 993 c-17 -4 -18 -25 -18 -263 l0 -258 23 -6 c12 -3 41 -6 65 -6 l42 0 -2 268 -3 267 -45 2 c-25 0 -53 -1 -62 -4z"/>
 </g>
<g id="layer11" fill="#fcbf00" stroke="none">
 <path d="M415 1086 c-22 -7 -54 -20 -70 -28 -39 -21 -135 -122 -137 -145 -1 -17 -2 -24 -8 -45 -2 -9 -2 -167 0 -170 1 -2 3 -15 5 -30 5 -42 85 -141 101 -126 3 3 -2 29 -12 57 -42 129 18 285 130 343 22 12 59 27 81 33 l40 12 0 54 0 54 -45 2 c-25 1 -63 -4 -85 -11z"/>
 <path d="M735 1088 c-16 -6 -36 -12 -43 -14 -9 -3 -12 -18 -10 -46 l3 -43 88 -3 87 -3 0 -254 c0 -220 2 -255 15 -255 13 0 15 36 15 264 0 166 -4 267 -10 271 -5 3 -10 17 -10 30 0 13 5 27 10 30 22 13 8 22 -32 22 -24 0 -52 2 -63 5 -11 4 -33 2 -50 -4z"/>
 <path d="M1028 1094 c-5 -4 -8 -24 -8 -45 0 -21 -4 -41 -10 -44 -6 -4 -10 -105 -10 -271 0 -228 2 -264 15 -264 13 0 15 35 15 256 l0 256 98 -4 c75 -3 107 -9 140 -26 44 -23 81 -71 83 -107 0 -12 3 -15 6 -7 8 21 -27 103 -63 148 -41 52 -135 102 -205 110 -30 3 -57 3 -61 -2z"/>
 <path d="M1137 733 c-12 -11 -8 -23 8 -23 8 0 15 7 15 15 0 16 -12 20 -23 8z"/>
 <path d="M1348 705 c-4 -16 -18 -47 -32 -68 -29 -42 -31 -47 -15 -47 14 0 61 106 57 128 -3 11 -6 7 -10 -13z"/>
 <path d="M1120 660 c0 -5 5 -10 10 -10 6 0 10 5 10 10 0 6 -4 10 -10 10 -5 0 -10 -4 -10 -10z"/>
 <path d="M1160 644 c0 -17 22 -14 28 4 2 7 -3 12 -12 12 -9 0 -16 -7 -16 -16z"/>
 <path d="M1203 528 c-24 -11 -31 -28 -12 -28 17 0 49 20 49 30 0 12 -9 12 -37 -2z"/>
 <path d="M1070 485 c0 -9 9 -15 25 -15 16 0 25 6 25 15 0 9 -9 15 -25 15 -16 0 -25 -6 -25 -15z"/>
 </g>
<g id="layer12" fill="#d5d4d7" stroke="none">
 <path d="M644 476 c-63 -28 -206 -130 -229 -165 -32 -46 -34 -121 -5 -168 32 -52 95 -88 152 -86 40 1 57 8 92 37 24 19 48 48 55 63 17 41 60 291 54 314 -4 15 -14 19 -47 19 -22 -1 -55 -7 -72 -14z"/>
 <path d="M791 437 c-1 -4 5 -20 13 -35 13 -25 12 -42 -9 -156 -13 -70 -32 -140 -41 -155 -22 -34 -55 -60 -76 -61 -26 0 -22 -17 5 -24 46 -12 128 -6 165 13 47 24 82 84 82 140 0 41 -41 136 -92 214 -13 19 -28 43 -35 53 -6 11 -12 15 -12 11z"/>
 </g>
<g id="layer13" fill="#ffd400" stroke="none">
 <path d="M1007 1094 c-11 -11 -8 -92 3 -99 6 -4 10 -103 10 -266 l0 -259 25 0 c14 0 25 5 25 11 0 8 14 9 45 5 39 -6 50 -3 98 27 99 64 147 151 147 266 0 156 -57 211 -227 219 l-92 4 -3 46 c-3 43 -15 61 -31 46z m191 -379 c7 -7 -10 -65 -20 -71 -6 -4 -14 -1 -18 6 -4 7 -13 9 -19 6 -17 -11 -23 17 -11 48 9 24 14 27 38 21 15 -4 29 -8 30 -10z"/>
 <path d="M660 1042 c0 -26 4 -52 10 -58 6 -6 11 -113 12 -259 l3 -250 78 -8 c43 -5 85 -6 93 -3 12 4 14 49 14 265 0 162 4 262 10 266 14 9 13 68 -2 83 -18 18 -78 16 -78 -3 0 -9 9 -15 25 -15 21 0 25 -5 25 -30 l0 -30 -75 0 -75 0 0 30 c0 25 4 30 25 30 16 0 25 6 25 15 0 11 -12 15 -45 15 l-45 0 0 -48z"/>
 <path d="M445 972 c-65 -31 -121 -86 -157 -154 -18 -34 -23 -60 -23 -123 0 -144 46 -200 186 -226 107 -19 100 -39 97 263 -3 304 2 290 -103 240z"/>
 <path d="M204 875 c-3 -19 -10 -38 -15 -41 -5 -3 -9 -22 -9 -42 1 -42 34 -150 42 -136 3 5 2 47 -2 94 -5 63 -4 92 6 114 8 16 11 32 8 37 -11 19 -23 8 -30 -26z"/>
 </g>

</svg>