<!DOCTYPE svg PUBLIC "-//W3C//DTD SVG 20010904//EN" "http://www.w3.org/TR/2001/REC-SVG-20010904/DTD/svg10.dtd">
<svg version="1.0" xmlns="http://www.w3.org/2000/svg" width="134px" height="136px" viewBox="0 0 1340 1360" preserveAspectRatio="xMidYMid meet">
<g id="layer1" fill="#ce5508" stroke="none">
 <path d="M440 450 c0 -5 7 -10 15 -10 8 0 15 5 15 10 0 6 -7 10 -15 10 -8 0 -15 -4 -15 -10z"/>
 <path d="M420 290 c0 -5 5 -10 10 -10 6 0 10 5 10 10 0 6 -4 10 -10 10 -5 0 -10 -4 -10 -10z"/>
 <path d="M190 200 c0 -5 5 -10 10 -10 6 0 10 5 10 10 0 6 -4 10 -10 10 -5 0 -10 -4 -10 -10z"/>
 </g>
<g id="layer2" fill="#1cd900" stroke="none">
 </g>
<g id="layer3" fill="#50da00" stroke="none">
 <path d="M470 230 c0 -5 7 -10 15 -10 8 0 15 5 15 10 0 6 -7 10 -15 10 -8 0 -15 -4 -15 -10z"/>
 <path d="M360 220 c0 -5 7 -10 15 -10 8 0 15 5 15 10 0 6 -7 10 -15 10 -8 0 -15 -4 -15 -10z"/>
 </g>
<g id="layer4" fill="#f5e300" stroke="none">
 <path d="M1040 445 c0 -8 5 -15 10 -15 6 0 10 7 10 15 0 8 -4 15 -10 15 -5 0 -10 -7 -10 -15z"/>
 <path d="M1040 410 c0 -22 36 -90 47 -90 17 0 16 20 -2 44 -8 11 -15 28 -15 38 0 10 -7 18 -15 18 -8 0 -15 -4 -15 -10z"/>
 </g>
<g id="layer5" fill="#8ce700" stroke="none">
 <path d="M432 248 c5 -14 68 -51 106 -63 15 -4 22 -2 22 7 0 7 -27 25 -59 41 -67 31 -74 32 -69 15z"/>
 </g>
<g id="layer6" fill="#009b66" stroke="none">
 <path d="M430 270 c0 -13 79 -57 118 -65 36 -8 47 13 11 22 -12 3 -42 17 -68 29 -51 26 -61 29 -61 14z"/>
 </g>
<g id="layer7" fill="#00f500" stroke="none">
 <path d="M394 249 c-3 -6 -26 -20 -50 -31 -41 -17 -58 -38 -34 -38 28 0 110 54 110 72 0 12 -18 10 -26 -3z"/>
 <path d="M160 201 c0 -5 7 -12 16 -15 22 -9 24 -8 24 9 0 8 -9 15 -20 15 -11 0 -20 -4 -20 -9z"/>
 </g>
<g id="layer8" fill="#059d50" stroke="none">
 <path d="M450 425 c0 -8 7 -15 15 -15 8 0 15 7 15 15 0 8 -7 15 -15 15 -8 0 -15 -7 -15 -15z"/>
 <path d="M450 375 c0 -8 7 -15 15 -15 8 0 15 7 15 15 0 8 -7 15 -15 15 -8 0 -15 -7 -15 -15z"/>
 <path d="M470 341 c0 -20 74 -103 114 -126 50 -29 56 -30 56 -10 0 8 -6 15 -14 15 -19 0 -113 86 -121 110 -6 19 -35 29 -35 11z"/>
 </g>
<g id="layer9" fill="#00c268" stroke="none">
 <path d="M470 435 c-10 -18 -11 -28 -3 -36 14 -14 33 -3 33 17 0 12 28 14 166 14 l167 0 -6 -35 c-3 -19 -15 -48 -26 -64 -23 -31 -27 -51 -11 -51 21 0 63 81 68 130 l5 50 -190 0 -190 0 -13 -25z"/>
 <path d="M480 377 c0 -7 40 -80 52 -94 17 -21 88 -73 100 -73 4 0 8 7 8 15 0 8 -7 15 -16 15 -22 0 -114 97 -114 121 0 10 -7 19 -15 19 -8 0 -15 -1 -15 -3z"/>
 </g>
<g id="layer10" fill="#00ac58" stroke="none">
 <path d="M840 410 c0 -5 7 -10 15 -10 8 0 15 5 15 10 0 6 -7 10 -15 10 -8 0 -15 -4 -15 -10z"/>
 <path d="M448 345 c-28 -56 4 -125 59 -125 13 0 23 -4 23 -9 0 -5 17 -11 38 -14 39 -7 82 0 82 13 0 6 -51 31 -93 44 -9 3 -20 14 -23 23 -14 47 -45 103 -56 103 -7 0 -21 -16 -30 -35z"/>
 </g>
<g id="layer11" fill="#74d800" stroke="none">
 <path d="M430 263 c0 -5 5 -15 10 -23 8 -12 10 -11 10 8 0 12 -4 22 -10 22 -5 0 -10 -3 -10 -7z"/>
 <path d="M330 210 c0 -5 -7 -10 -15 -10 -24 0 -17 -34 13 -62 52 -49 97 -59 160 -37 52 18 108 109 67 109 -9 0 -15 -9 -15 -25 0 -32 -41 -60 -75 -51 -13 3 -39 24 -56 46 -21 26 -40 40 -56 40 -13 0 -23 -4 -23 -10z"/>
 </g>
<g id="layer12" fill="#f51400" stroke="none">
 <path d="M46 444 c-3 -9 -6 -17 -6 -18 0 -1 16 0 35 2 35 4 35 4 35 -36 0 -44 12 -80 43 -124 16 -24 16 -28 3 -28 -33 0 -14 -26 27 -37 84 -24 107 -26 107 -10 0 8 -12 17 -27 20 -35 7 -91 61 -109 104 -8 18 -14 57 -14 88 l0 55 -44 0 c-31 0 -46 -5 -50 -16z"/>
 <path d="M1060 432 c0 -36 23 -94 45 -112 25 -21 28 -5 6 43 -25 54 -26 67 -7 67 8 0 19 -15 25 -32 7 -18 26 -47 43 -65 21 -21 27 -33 17 -33 -11 -1 -11 -2 2 -10 20 -12 59 -2 59 15 0 7 -13 18 -30 25 -33 14 -55 43 -67 91 -8 31 -13 34 -51 37 -40 3 -42 2 -42 -26z"/>
 <path d="M1321 374 c0 -11 3 -14 6 -6 3 7 2 16 -1 19 -3 4 -6 -2 -5 -13z"/>
 <path d="M422 326 c-14 -37 -73 -96 -97 -96 -8 0 -15 -7 -15 -15 0 -19 3 -19 50 5 39 20 81 73 95 118 11 37 -19 26 -33 -12z"/>
 <path d="M90 260 c0 -5 5 -10 10 -10 6 0 10 5 10 10 0 6 -4 10 -10 10 -5 0 -10 -4 -10 -10z"/>
 </g>
<g id="layer13" fill="#79e200" stroke="none">
 <path d="M392 258 c-26 -34 -23 -57 14 -98 20 -22 47 -43 60 -46 42 -11 107 46 88 78 -3 4 -27 17 -54 29 -27 12 -55 27 -61 35 -14 17 -33 18 -47 2z"/>
 </g>
<g id="layer14" fill="#bf6000" stroke="none">
 <path d="M7 663 c-4 -3 -7 -50 -7 -104 0 -110 6 -120 70 -112 l35 5 0 109 0 109 -46 0 c-25 0 -49 -3 -52 -7z"/>
 <path d="M150 215 c0 -8 9 -15 20 -15 24 0 27 15 4 24 -22 9 -24 8 -24 -9z"/>
 </g>
<g id="layer15" fill="#fdbf00" stroke="none">
 <path d="M856 458 c-2 -7 -9 -35 -15 -63 -7 -27 -24 -65 -37 -83 -30 -38 -25 -50 34 -78 47 -22 132 -21 172 3 33 19 39 33 14 33 -31 0 -92 43 -112 79 -11 20 -23 55 -27 79 -6 40 -22 56 -29 30z"/>
 </g>
<g id="layer16" fill="#dc7300" stroke="none">
 <path d="M158 1353 c7 -3 16 -2 19 1 4 3 -2 6 -13 5 -11 0 -14 -3 -6 -6z"/>
 <path d="M137 1333 c-12 -11 -8 -23 8 -23 8 0 15 7 15 15 0 16 -12 20 -23 8z"/>
 <path d="M60 1212 c0 -14 79 -86 87 -79 4 4 -11 25 -32 47 -38 39 -55 49 -55 32z"/>
 <path d="M50 1137 c0 -14 39 -41 48 -33 6 7 -27 46 -40 46 -4 0 -8 -6 -8 -13z"/>
 <path d="M60 1092 c0 -9 73 -82 82 -82 12 0 17 44 6 57 -15 19 -31 16 -23 -4 4 -12 -3 -9 -22 10 -29 27 -43 34 -43 19z"/>
 <path d="M50 1019 c0 -6 11 -20 25 -31 32 -25 31 -35 -2 -70 -14 -15 -23 -31 -20 -35 9 -8 77 56 77 72 0 12 -61 75 -73 75 -4 0 -7 -5 -7 -11z"/>
 <path d="M100 865 c-39 -40 -33 -60 8 -24 15 13 7 2 -17 -23 -60 -63 -44 -75 18 -14 31 31 49 56 49 72 0 33 -18 30 -58 -11z"/>
 <path d="M100 745 c-18 -19 -31 -37 -27 -41 6 -7 87 56 87 69 0 18 -29 4 -60 -28z"/>
 <path d="M1320 656 c0 -8 5 -18 10 -21 6 -3 10 1 10 9 0 8 -4 18 -10 21 -5 3 -10 -1 -10 -9z"/>
 <path d="M160 645 c0 -13 68 -15 554 -15 305 0 561 3 570 6 9 3 16 10 16 15 0 5 -242 9 -570 9 -500 0 -570 -2 -570 -15z"/>
 <path d="M1310 475 c0 -8 7 -15 15 -15 8 0 15 7 15 15 0 8 -7 15 -15 15 -8 0 -15 -7 -15 -15z"/>
 <path d="M442 468 c4 -10 54 -14 199 -16 197 -3 239 0 239 18 0 6 -83 10 -221 10 -172 0 -220 -3 -217 -12z"/>
 <path d="M310 205 c0 -8 5 -15 10 -15 6 0 10 7 10 15 0 8 -4 15 -10 15 -5 0 -10 -7 -10 -15z"/>
 </g>
<g id="layer17" fill="#ffce00" stroke="none">
 <path d="M872 457 c-29 -34 27 -144 94 -183 51 -30 74 -26 105 17 20 28 21 34 8 72 -7 23 -14 49 -15 57 0 8 -2 23 -3 33 -1 15 -12 17 -90 17 -60 0 -92 -4 -99 -13z"/>
 </g>
<g id="layer18" fill="#66bc00" stroke="none">
 <path d="M915 211 c-6 -27 11 -186 21 -203 3 -4 18 -8 35 -8 28 0 29 2 29 43 l0 43 35 -4 c38 -5 85 19 85 42 0 27 -59 66 -101 66 -32 0 -39 4 -39 19 0 11 -9 21 -22 25 -35 9 -36 8 -43 -23z"/>
 <path d="M143 198 c-19 -25 -75 -177 -68 -187 3 -6 19 -11 35 -11 24 0 30 6 40 34 l11 34 25 -24 c20 -21 32 -25 72 -22 46 3 47 3 45 36 -1 37 -43 89 -78 98 -11 3 -25 15 -30 27 -12 26 -38 33 -52 15z"/>
 </g>
<g id="layer19" fill="#00bb64" stroke="none">
 <path d="M468 463 c-22 -6 -22 -12 -1 -35 15 -17 15 -18 0 -18 -22 0 -21 -13 2 -34 11 -10 25 -31 31 -47 7 -16 16 -29 21 -29 5 0 9 -7 9 -14 0 -16 46 -54 98 -81 33 -16 35 -16 90 12 38 19 62 38 71 58 8 17 18 32 23 33 4 2 8 8 8 14 0 5 7 16 15 24 8 9 15 25 15 38 0 12 4 26 10 32 5 5 7 19 4 32 -6 22 -8 22 -193 21 -102 -1 -194 -3 -203 -6z"/>
 <path d="M450 336 c0 -13 -7 -29 -15 -36 -18 -15 -20 -30 -2 -30 6 0 20 18 30 39 21 46 21 51 2 51 -9 0 -15 -9 -15 -24z"/>
 </g>
<g id="layer20" fill="#fb2f00" stroke="none">
 <path d="M1198 471 c-138 -6 -163 -15 -140 -51 6 -11 12 -27 12 -35 0 -9 7 -18 15 -21 8 -4 15 -12 15 -18 0 -7 11 -23 25 -36 21 -20 31 -22 79 -17 66 7 102 29 121 75 16 36 21 113 8 110 -5 -1 -65 -4 -135 -7z"/>
 <path d="M63 462 c-70 -46 2 -231 96 -246 21 -3 44 -13 51 -21 10 -12 23 -15 54 -9 23 3 46 10 51 14 6 4 22 10 38 14 15 3 27 12 27 20 0 7 13 24 28 37 46 39 62 70 62 119 -1 80 -2 81 -212 80 -101 -1 -189 -5 -195 -8z"/>
 </g>
<g id="layer21" fill="#e67500" stroke="none">
 <path d="M55 1337 c-12 -19 -14 -74 -12 -352 2 -322 3 -330 22 -333 18 -3 20 -9 17 -85 -3 -70 -1 -85 14 -97 24 -21 1210 -25 1231 -5 18 19 18 178 0 193 -9 8 -173 11 -522 11 -281 0 -540 1 -577 1 l-68 0 0 44 c0 25 -5 48 -11 52 -6 3 -26 -9 -45 -27 l-34 -33 0 35 c0 26 8 43 28 62 15 15 33 27 40 27 7 0 12 13 12 30 0 38 -6 38 -47 -2 -29 -28 -33 -30 -33 -11 0 27 28 81 48 92 15 9 13 14 -15 43 -19 19 -33 44 -33 58 0 24 0 24 33 -8 38 -37 43 -38 51 -16 8 20 -26 77 -59 98 -16 11 -25 26 -25 43 l0 27 35 -34 c47 -45 55 -33 55 84 0 69 4 94 17 108 15 17 14 18 -45 18 -53 0 -64 -3 -77 -23z"/>
 <path d="M1050 410 c0 -5 7 -10 15 -10 8 0 15 5 15 10 0 6 -7 10 -15 10 -8 0 -15 -4 -15 -10z"/>
 </g>
<g id="layer22" fill="#ff8f00" stroke="none">
 <path d="M156 1338 c-12 -16 -16 -47 -16 -112 l0 -90 -33 32 c-41 39 -57 41 -57 4 0 -20 13 -41 45 -72 25 -24 45 -53 45 -64 0 -17 -4 -16 -33 12 -41 39 -57 41 -57 4 0 -19 11 -39 34 -61 l35 -34 -35 -42 c-34 -42 -46 -95 -22 -95 7 0 27 14 45 32 23 22 33 27 33 16 0 -8 -20 -36 -45 -60 -34 -35 -45 -53 -45 -77 0 -40 18 -40 56 0 l29 31 5 -54 5 -53 575 0 575 0 3 334 c2 300 1 336 -14 353 -16 17 -45 18 -565 18 l-548 0 -15 -22z"/>
 <path d="M1060 391 c0 -5 5 -13 10 -16 6 -3 10 -2 10 4 0 5 -4 13 -10 16 -5 3 -10 2 -10 -4z"/>
 </g>

</svg>