<!DOCTYPE svg PUBLIC "-//W3C//DTD SVG 20010904//EN" "http://www.w3.org/TR/2001/REC-SVG-20010904/DTD/svg10.dtd">
<svg version="1.0" xmlns="http://www.w3.org/2000/svg" width="121px" height="136px" viewBox="0 0 1210 1360" preserveAspectRatio="xMidYMid meet">
<g id="layer1" fill="#ffdb2d" stroke="none">
 <path d="M570 1246 c0 -91 3 -116 16 -127 11 -9 20 -10 32 -2 14 8 18 31 20 127 l3 116 -36 0 -35 0 0 -114z"/>
 <path d="M1075 996 c-103 -62 -118 -78 -92 -103 17 -17 21 -17 80 16 125 69 139 80 135 109 -2 15 -10 28 -18 29 -8 1 -55 -22 -105 -51z"/>
 <path d="M17 1033 c-4 -3 -7 -16 -7 -28 0 -31 193 -143 216 -124 31 25 11 50 -84 105 -92 53 -112 61 -125 47z"/>
 <path d="M1201 694 c0 -11 3 -14 6 -6 3 7 2 16 -1 19 -3 4 -6 -2 -5 -13z"/>
 <path d="M1 664 c0 -11 3 -14 6 -6 3 7 2 16 -1 19 -3 4 -6 -2 -5 -13z"/>
 <path d="M979 474 c-20 -24 -2 -43 97 -101 105 -62 124 -65 124 -23 0 27 -9 35 -94 85 -52 30 -98 55 -104 55 -5 0 -15 -7 -23 -16z"/>
 <path d="M105 426 c-92 -54 -112 -80 -81 -105 13 -11 32 -3 117 46 56 32 103 64 106 71 7 16 -15 42 -36 41 -9 0 -56 -24 -106 -53z"/>
 <path d="M580 231 c-12 -23 -13 -200 -1 -219 5 -8 21 -12 37 -10 l29 3 3 109 c3 113 -4 136 -39 136 -10 0 -23 -9 -29 -19z"/>
 </g>
<g id="layer2" fill="#ffce00" stroke="none">
 <path d="M855 1190 c-61 -97 -69 -145 -23 -138 31 4 106 134 91 157 -19 30 -41 24 -68 -19z"/>
 <path d="M292 1208 c-19 -19 -14 -38 26 -103 39 -62 65 -75 85 -44 8 12 1 33 -29 85 -40 70 -60 84 -82 62z"/>
 <path d="M492 1022 c-98 -35 -195 -137 -226 -236 -52 -166 36 -358 201 -436 67 -32 173 -38 244 -15 102 34 181 104 228 205 22 47 26 68 26 145 -1 81 -4 96 -32 150 -37 71 -115 148 -181 177 -67 30 -190 35 -260 10z"/>
 <path d="M1040 705 c-6 -8 -10 -22 -8 -32 3 -15 16 -18 91 -21 81 -3 87 -1 87 17 0 46 -9 51 -85 51 -51 0 -76 -4 -85 -15z"/>
 <path d="M0 691 c0 -46 9 -51 85 -51 59 0 75 4 90 20 15 16 15 22 5 35 -9 11 -33 15 -96 15 -76 0 -84 -2 -84 -19z"/>
 <path d="M340 288 c-67 -110 -75 -153 -28 -146 32 4 106 133 91 157 -18 28 -41 24 -63 -11z"/>
 <path d="M815 306 c-20 -15 -20 -15 3 -58 57 -109 81 -130 112 -93 10 12 4 28 -32 86 -23 40 -48 74 -53 76 -6 2 -20 -3 -30 -11z"/>
 </g>

</svg>