<!DOCTYPE svg PUBLIC "-//W3C//DTD SVG 20010904//EN" "http://www.w3.org/TR/2001/REC-SVG-20010904/DTD/svg10.dtd">
<svg version="1.0" xmlns="http://www.w3.org/2000/svg" width="136px" height="129px" viewBox="0 0 1360 1290" preserveAspectRatio="xMidYMid meet">
<g id="layer1" fill="#9bae00" stroke="none">
 <path d="M970 695 c0 -8 5 -15 10 -15 6 0 10 7 10 15 0 8 -4 15 -10 15 -5 0 -10 -7 -10 -15z"/>
 </g>
<g id="layer2" fill="#a6ab00" stroke="none">
 <path d="M990 695 c0 -17 9 -19 28 -6 11 7 10 10 -3 15 -23 9 -25 8 -25 -9z"/>
 </g>
<g id="layer3" fill="#47dc00" stroke="none">
 <path d="M980 685 c0 -8 7 -15 15 -15 8 0 15 7 15 15 0 8 -7 15 -15 15 -8 0 -15 -7 -15 -15z"/>
 </g>
<g id="layer4" fill="#40e300" stroke="none">
 <path d="M960 685 c0 -8 5 -15 10 -15 6 0 10 7 10 15 0 8 -4 15 -10 15 -5 0 -10 -7 -10 -15z"/>
 <path d="M1010 685 c0 -8 5 -15 10 -15 6 0 10 7 10 15 0 8 -4 15 -10 15 -5 0 -10 -7 -10 -15z"/>
 </g>
<g id="layer5" fill="#e56000" stroke="none">
 <path d="M1351 1054 c0 -11 3 -14 6 -6 3 7 2 16 -1 19 -3 4 -6 -2 -5 -13z"/>
 <path d="M1351 994 c0 -11 3 -14 6 -6 3 7 2 16 -1 19 -3 4 -6 -2 -5 -13z"/>
 <path d="M960 705 c0 -11 12 -15 45 -15 45 0 60 12 29 24 -31 12 -74 7 -74 -9z"/>
 </g>
<g id="layer6" fill="#c2e400" stroke="none">
 <path d="M360 1125 c0 -42 3 -55 15 -55 12 0 15 13 15 55 0 42 -3 55 -15 55 -12 0 -15 -13 -15 -55z"/>
 </g>
<g id="layer7" fill="#c0e800" stroke="none">
 <path d="M360 1013 c0 -63 12 -97 24 -68 3 9 6 41 6 71 0 41 -4 54 -15 54 -12 0 -15 -13 -15 -57z"/>
 </g>
<g id="layer8" fill="#ffbe84" stroke="none">
 <path d="M370 1000 c0 -56 3 -70 15 -70 12 0 15 14 15 70 0 56 -3 70 -15 70 -12 0 -15 -14 -15 -70z"/>
 </g>
<g id="layer9" fill="#ffd388" stroke="none">
 <path d="M779 1061 c-41 -41 -49 -61 -24 -61 8 0 15 5 15 10 0 6 11 22 25 35 21 22 33 25 100 25 60 0 75 3 75 15 0 12 -15 15 -76 15 -75 0 -77 -1 -115 -39z"/>
 <path d="M990 1078 c0 -14 277 -128 310 -128 31 0 24 18 -12 28 -18 5 -90 33 -161 61 -70 28 -130 51 -132 51 -3 0 -5 -6 -5 -12z"/>
 <path d="M860 985 c0 -8 4 -15 9 -15 16 0 41 -31 41 -51 0 -14 -7 -19 -25 -19 -16 0 -25 -6 -25 -15 0 -21 43 -19 64 4 22 24 13 64 -21 91 -31 24 -43 25 -43 5z"/>
 <path d="M748 883 c-26 -3 -38 -9 -38 -20 0 -13 8 -15 46 -9 26 3 55 6 65 6 11 0 19 7 19 15 0 15 -11 16 -92 8z"/>
 <path d="M627 863 c-15 -15 -5 -23 28 -23 24 0 35 5 35 15 0 15 -50 22 -63 8z"/>
 </g>
<g id="layer10" fill="#d96800" stroke="none">
 <path d="M811 1067 c-13 -6 -29 -20 -35 -30 -16 -27 18 -50 62 -42 27 5 37 1 63 -24 40 -40 38 -84 -3 -89 -32 -4 -39 -32 -8 -32 24 0 70 45 70 68 0 50 -76 112 -137 112 -22 0 -25 2 -13 10 8 5 45 10 83 10 53 0 67 3 67 15 0 12 -14 15 -62 15 -35 0 -74 -6 -87 -13z"/>
 <path d="M980 1058 c1 -12 281 -128 308 -128 7 0 12 7 12 15 0 8 -7 15 -15 15 -8 0 -77 25 -152 55 -76 30 -141 55 -145 55 -4 0 -8 -6 -8 -12z"/>
 <path d="M1280 910 c0 -5 7 -10 15 -10 8 0 15 5 15 10 0 6 -7 10 -15 10 -8 0 -15 -4 -15 -10z"/>
 <path d="M813 873 c-24 -9 -14 -33 13 -33 18 0 25 5 22 17 -3 18 -16 24 -35 16z"/>
 <path d="M1261 845 c-23 -40 -25 -45 -13 -45 10 0 45 70 39 77 -3 2 -14 -12 -26 -32z"/>
 <path d="M750 855 c0 -8 5 -15 10 -15 6 0 10 7 10 15 0 8 -4 15 -10 15 -5 0 -10 -7 -10 -15z"/>
 <path d="M680 845 c0 -8 5 -15 10 -15 6 0 10 7 10 15 0 8 -4 15 -10 15 -5 0 -10 -7 -10 -15z"/>
 <path d="M850 750 c0 -5 5 -10 10 -10 6 0 10 5 10 10 0 6 -4 10 -10 10 -5 0 -10 -4 -10 -10z"/>
 <path d="M1153 738 c-24 -11 -31 -28 -12 -28 17 0 49 20 49 30 0 12 -9 12 -37 -2z"/>
 </g>
<g id="layer11" fill="#c06100" stroke="none">
 <path d="M643 845 c-21 -16 -6 -42 53 -94 55 -48 122 -71 207 -71 49 0 58 3 55 17 -2 9 -16 21 -33 26 -44 14 -92 53 -122 98 -26 39 -26 39 -85 37 -33 -1 -67 -7 -75 -13z"/>
 </g>
<g id="layer12" fill="#8afa00" stroke="none">
 <path d="M241 1197 c-8 -10 -11 -71 -9 -208 l3 -194 63 -3 c38 -2 69 2 78 9 17 14 19 114 3 125 -7 4 -10 52 -8 143 l3 136 -60 3 c-43 2 -64 -1 -73 -11z"/>
 <path d="M628 13 c7 -3 16 -2 19 1 4 3 -2 6 -13 5 -11 0 -14 -3 -6 -6z"/>
 </g>
<g id="layer13" fill="#66bc00" stroke="none">
 <path d="M22 1260 c-22 -9 -22 -11 -22 -208 0 -160 3 -202 14 -211 9 -7 40 -11 78 -9 l63 3 3 204 c2 142 -1 208 -9 217 -13 16 -91 18 -127 4z"/>
 <path d="M738 13 c7 -3 16 -2 19 1 4 3 -2 6 -13 5 -11 0 -14 -3 -6 -6z"/>
 </g>
<g id="layer14" fill="#77e500" stroke="none">
 <path d="M140 1283 c-4 -85 1 -476 5 -483 7 -11 48 -13 83 -4 22 6 22 7 22 205 l0 199 61 0 c51 0 60 -2 50 -14 -16 -19 -11 -258 5 -263 8 -3 13 49 16 174 3 98 3 181 1 186 -2 4 -58 7 -124 7 -65 0 -119 -3 -119 -7z"/>
 <path d="M1165 450 c-13 -21 8 -30 66 -30 44 0 59 4 59 14 0 8 -7 17 -16 20 -25 10 -102 7 -109 -4z"/>
 <path d="M1110 369 c-15 -54 -10 -93 13 -97 14 -3 17 5 17 51 0 31 3 62 6 71 4 10 1 16 -10 16 -9 0 -19 -15 -26 -41z"/>
 <path d="M1200 382 c0 -25 39 -43 86 -40 41 3 49 6 49 23 0 18 -8 20 -67 23 -38 2 -68 -1 -68 -6z"/>
 <path d="M738 333 c-51 -21 -51 -44 0 -36 109 17 117 19 120 36 3 14 -4 17 -40 16 -24 0 -60 -7 -80 -16z"/>
 <path d="M1170 286 c0 -54 17 -85 40 -71 14 9 13 98 -2 113 -26 26 -38 13 -38 -42z"/>
 <path d="M885 263 c20 -140 37 -171 64 -119 22 40 -20 166 -55 166 -14 0 -15 -8 -9 -47z"/>
 <path d="M1290 297 c0 -7 16 -29 36 -48 l36 -34 -8 40 c-3 22 -9 43 -11 48 -7 12 -53 8 -53 -6z"/>
 <path d="M753 270 c-72 -11 -82 -15 -94 -46 -14 -38 -3 -44 64 -37 51 5 59 9 77 38 21 33 26 56 13 54 -5 -1 -32 -5 -60 -9z"/>
 <path d="M1252 223 c2 -21 10 -29 36 -37 45 -13 51 -1 17 34 -37 38 -57 39 -53 3z"/>
 <path d="M818 199 c-14 -24 -17 -43 -12 -85 4 -30 11 -57 16 -60 5 -3 20 2 35 11 23 16 25 21 19 68 -14 107 -27 121 -58 66z"/>
 <path d="M677 153 c-17 -3 -32 -14 -41 -32 -18 -33 -18 -91 -1 -91 18 0 108 108 100 120 -3 5 -12 9 -18 9 -7 -1 -24 -4 -40 -6z"/>
 <path d="M711 59 c-24 -27 -41 -52 -38 -55 3 -3 27 1 53 9 48 14 49 15 52 55 4 56 -12 54 -67 -9z"/>
 </g>
<g id="layer15" fill="#ffb74c" stroke="none">
 <path d="M610 1238 c-51 -25 -83 -33 -150 -37 l-85 -6 0 -65 0 -65 85 1 c71 0 93 4 135 26 86 44 159 61 244 55 66 -4 102 -16 273 -85 108 -45 206 -86 217 -91 18 -10 21 -7 27 25 3 19 2 50 -3 67 -8 30 -19 36 -218 119 l-210 87 -125 0 c-121 1 -127 0 -190 -31z"/>
 <path d="M830 1075 c0 -12 14 -15 70 -15 56 0 70 3 70 15 0 12 -14 15 -70 15 -56 0 -70 -3 -70 -15z"/>
 <path d="M990 1065 c0 -8 5 -15 10 -15 6 0 10 7 10 15 0 8 -4 15 -10 15 -5 0 -10 -7 -10 -15z"/>
 <path d="M790 1060 c0 -5 5 -10 10 -10 6 0 10 5 10 10 0 6 -4 10 -10 10 -5 0 -10 -4 -10 -10z"/>
 <path d="M890 982 c0 -5 9 -17 20 -27 22 -20 26 -14 10 16 -11 19 -30 26 -30 11z"/>
 <path d="M860 875 c0 -8 7 -15 15 -15 8 0 15 7 15 15 0 8 -7 15 -15 15 -8 0 -15 -7 -15 -15z"/>
 <path d="M790 865 c0 -8 7 -15 15 -15 8 0 15 7 15 15 0 8 -7 15 -15 15 -8 0 -15 -7 -15 -15z"/>
 <path d="M720 855 c0 -8 5 -15 10 -15 6 0 10 7 10 15 0 8 -4 15 -10 15 -5 0 -10 -7 -10 -15z"/>
 <path d="M630 845 c0 -8 5 -15 10 -15 6 0 10 7 10 15 0 8 -4 15 -10 15 -5 0 -10 -7 -10 -15z"/>
 </g>
<g id="layer16" fill="#e57500" stroke="none">
 <path d="M786 1048 c-18 -16 -27 -32 -23 -42 7 -17 37 -22 37 -6 0 6 9 10 20 10 11 0 20 -4 20 -10 0 -5 13 -10 29 -10 33 0 46 -13 53 -53 7 -38 -22 -70 -56 -61 -17 4 -26 2 -26 -6 0 -9 -11 -10 -35 -6 -44 9 -46 -6 -7 -60 52 -72 100 -96 211 -107 l98 -10 59 39 c95 63 165 188 126 224 -23 21 -262 116 -284 113 -10 -2 -18 1 -18 5 0 4 -39 7 -87 7 -81 0 -90 -2 -117 -27z"/>
 </g>
<g id="layer17" fill="#ffc573" stroke="none">
 <path d="M690 1152 c-30 -10 -75 -29 -100 -42 -31 -16 -70 -25 -125 -29 l-80 -6 0 -74 0 -74 53 -13 c30 -6 66 -21 80 -33 46 -37 92 -54 108 -40 9 7 29 9 54 5 27 -4 40 -3 40 5 0 8 12 10 35 6 22 -4 35 -2 35 5 0 7 13 8 35 5 19 -3 37 -1 40 4 4 5 19 9 36 9 26 0 29 3 29 31 0 18 -11 44 -27 65 -25 30 -33 34 -76 34 -44 0 -48 2 -45 22 2 12 14 28 28 35 30 15 146 17 155 3 4 -6 12 -10 18 -9 7 1 42 -12 80 -29 37 -17 73 -29 80 -26 7 2 29 -6 48 -18 19 -13 47 -25 63 -26 17 -1 33 -7 37 -13 5 -8 12 -8 28 0 23 13 28 36 9 44 -7 3 -103 42 -213 87 -187 77 -205 83 -285 86 -64 3 -99 -1 -140 -14z"/>
 </g>
<g id="layer18" fill="#72d400" stroke="none">
 <path d="M226 1198 c-23 -32 -24 -398 -1 -398 12 0 15 31 17 193 l3 192 68 3 c51 2 67 6 67 17 0 12 -15 15 -69 15 -61 0 -72 -3 -85 -22z"/>
 <path d="M955 678 c-2 -7 -12 -49 -21 -93 -8 -44 -24 -100 -35 -125 -17 -40 -23 -45 -55 -48 -55 -4 -102 -30 -140 -80 -33 -43 -74 -151 -74 -194 0 -21 9 -21 74 -1 15 4 11 -4 -15 -36 -19 -22 -40 -41 -46 -41 -8 0 -13 -13 -13 -30 0 -28 3 -30 35 -30 43 0 132 23 175 45 48 25 121 96 136 132 21 48 17 104 -10 157 l-24 48 19 45 c10 24 26 69 35 100 l16 55 35 -61 c31 -55 33 -65 24 -93 -16 -46 -13 -89 8 -124 20 -33 80 -84 99 -84 6 0 13 23 15 53 l3 52 2 -58 c2 -61 1 -60 70 -81 16 -6 22 -3 22 8 0 9 -4 16 -10 16 -5 0 -10 5 -10 12 0 6 13 -1 29 -16 41 -40 61 -30 61 30 0 26 -5 64 -12 85 -11 39 -11 39 -67 41 l-56 1 49 6 c27 3 51 12 54 18 2 7 -18 35 -45 62 -47 47 -61 54 -142 64 -8 1 -31 34 -50 73 -20 39 -42 78 -50 88 -16 19 -80 22 -86 4z m392 -403 c9 -25 -2 -27 -22 -5 -17 18 -17 20 -1 20 9 0 19 -7 23 -15z m-411 -84 c4 -25 3 -41 -4 -41 -5 0 -13 21 -16 48 -4 26 -9 56 -12 67 -3 14 0 12 10 -6 9 -15 18 -45 22 -68z m-146 50 c0 -16 -25 -28 -71 -34 -43 -6 -47 -5 -42 13 3 10 15 21 27 23 40 8 86 7 86 -2z m59 -162 c-21 -13 -36 85 -17 108 11 14 14 9 22 -41 7 -46 6 -60 -5 -67z m-117 -51 c-49 -25 -51 -23 -12 17 30 31 35 33 41 18 5 -14 -2 -22 -29 -35z"/>
 </g>

</svg>