<!DOCTYPE svg PUBLIC "-//W3C//DTD SVG 20010904//EN" "http://www.w3.org/TR/2001/REC-SVG-20010904/DTD/svg10.dtd">
<svg version="1.0" xmlns="http://www.w3.org/2000/svg" width="84px" height="136px" viewBox="0 0 840 1360" preserveAspectRatio="xMidYMid meet">
<g id="layer1" fill="#a6d400" stroke="none">
 <path d="M97 713 c-12 -11 -8 -23 8 -23 8 0 15 7 15 15 0 16 -12 20 -23 8z"/>
 </g>
<g id="layer2" fill="#009fb3" stroke="none">
 <path d="M150 1251 c0 -13 29 -35 37 -28 7 8 -15 37 -28 37 -5 0 -9 -4 -9 -9z"/>
 <path d="M97 742 c-18 -20 -22 -42 -8 -42 8 0 41 43 41 55 0 11 -18 4 -33 -13z"/>
 </g>
<g id="layer3" fill="#00b4a9" stroke="none">
 <path d="M140 1270 c0 -5 5 -10 10 -10 6 0 10 5 10 10 0 6 -4 10 -10 10 -5 0 -10 -4 -10 -10z"/>
 <path d="M175 1219 c-4 -6 -5 -13 -2 -16 7 -7 27 6 27 18 0 12 -17 12 -25 -2z"/>
 <path d="M120 1130 c-6 -12 -9 -24 -7 -27 3 -2 11 5 17 17 6 12 9 24 7 27 -3 2 -11 -5 -17 -17z"/>
 <path d="M20 1100 c0 -5 5 -10 10 -10 6 0 10 5 10 10 0 6 -4 10 -10 10 -5 0 -10 -4 -10 -10z"/>
 <path d="M2 1030 c0 -14 2 -19 5 -12 2 6 2 18 0 25 -3 6 -5 1 -5 -13z"/>
 <path d="M70 990 c0 -11 7 -20 15 -20 8 0 15 9 15 20 0 11 -7 20 -15 20 -8 0 -15 -9 -15 -20z"/>
 <path d="M70 890 c0 -11 7 -20 15 -20 8 0 15 9 15 20 0 11 -7 20 -15 20 -8 0 -15 -9 -15 -20z"/>
 <path d="M2 885 c0 -36 13 -71 22 -57 4 7 3 18 -2 25 -5 7 -12 21 -15 32 l-5 20 0 -20z"/>
 <path d="M80 831 c0 -5 7 -14 15 -21 13 -10 15 -9 15 9 0 12 -6 21 -15 21 -8 0 -15 -4 -15 -9z"/>
 </g>
<g id="layer4" fill="#00cbe1" stroke="none">
 <path d="M600 1243 c0 -18 47 -69 56 -60 4 4 -6 22 -24 40 -18 17 -32 26 -32 20z"/>
 <path d="M190 1212 c0 -14 49 -56 57 -49 3 4 -4 18 -17 32 -24 25 -40 32 -40 17z"/>
 <path d="M260 1131 c0 -5 5 -13 10 -16 6 -3 10 -2 10 4 0 5 -4 13 -10 16 -5 3 -10 2 -10 -4z"/>
 <path d="M480 1040 c0 -5 7 -10 15 -10 8 0 15 5 15 10 0 6 -7 10 -15 10 -8 0 -15 -4 -15 -10z"/>
 <path d="M410 990 c0 -5 5 -10 10 -10 6 0 10 5 10 10 0 6 -4 10 -10 10 -5 0 -10 -4 -10 -10z"/>
 <path d="M387 953 c-4 -3 -7 -11 -7 -17 0 -6 5 -5 12 2 6 6 9 14 7 17 -3 3 -9 2 -12 -2z"/>
 <path d="M196 854 c-36 -43 -43 -71 -11 -44 19 16 59 80 53 85 -2 3 -21 -16 -42 -41z"/>
 <path d="M380 850 c0 -5 5 -10 10 -10 6 0 10 5 10 10 0 6 -4 10 -10 10 -5 0 -10 -4 -10 -10z"/>
 <path d="M430 850 c0 -5 5 -10 10 -10 6 0 10 5 10 10 0 6 -4 10 -10 10 -5 0 -10 -4 -10 -10z"/>
 <path d="M560 801 c0 -5 5 -13 10 -16 6 -3 10 -2 10 4 0 5 -4 13 -10 16 -5 3 -10 2 -10 -4z"/>
 <path d="M610 740 c0 -5 7 -10 15 -10 8 0 15 5 15 10 0 6 -7 10 -15 10 -8 0 -15 -4 -15 -10z"/>
 <path d="M660 710 c0 -5 7 -10 15 -10 8 0 15 5 15 10 0 6 -7 10 -15 10 -8 0 -15 -4 -15 -10z"/>
 </g>
<g id="layer5" fill="#9ce100" stroke="none">
 <path d="M550 1304 c0 -12 7 -27 15 -34 19 -16 19 -3 0 30 -13 24 -14 24 -15 4z"/>
 <path d="M200 1235 c0 -11 44 -65 52 -65 16 0 8 27 -15 48 -23 21 -37 28 -37 17z"/>
 <path d="M280 1141 c0 -5 5 -13 10 -16 6 -3 10 -2 10 4 0 5 -4 13 -10 16 -5 3 -10 2 -10 -4z"/>
 <path d="M290 1060 c0 -11 7 -20 15 -20 8 0 15 9 15 20 0 11 -7 20 -15 20 -8 0 -15 -9 -15 -20z"/>
 <path d="M267 933 c-4 -3 -7 -11 -7 -17 0 -6 5 -5 12 2 6 6 9 14 7 17 -3 3 -9 2 -12 -2z"/>
 <path d="M344 904 c3 -9 6 -21 6 -27 0 -6 7 -4 16 5 18 18 11 38 -13 38 -10 0 -13 -6 -9 -16z"/>
 <path d="M220 860 c0 -5 7 -10 15 -10 8 0 15 5 15 10 0 6 -7 10 -15 10 -8 0 -15 -4 -15 -10z"/>
 <path d="M440 835 c0 -8 5 -15 10 -15 6 0 10 7 10 15 0 8 -4 15 -10 15 -5 0 -10 -7 -10 -15z"/>
 <path d="M370 831 c0 -9 31 -31 44 -31 3 0 6 7 6 15 0 8 -4 15 -9 15 -5 0 -16 3 -25 6 -9 3 -16 1 -16 -5z"/>
 <path d="M183 815 c-3 -9 -3 -19 1 -22 7 -7 36 16 36 28 0 15 -30 10 -37 -6z"/>
 <path d="M620 715 c0 -8 9 -15 20 -15 24 0 27 15 4 24 -22 9 -24 8 -24 -9z"/>
 </g>
<g id="layer6" fill="#a9e200" stroke="none">
 <path d="M540 1321 c0 -5 5 -13 10 -16 6 -3 10 -2 10 4 0 5 -4 13 -10 16 -5 3 -10 2 -10 -4z"/>
 <path d="M560 1273 c0 -14 81 -123 92 -123 4 0 8 6 8 13 -1 15 -100 125 -100 110z"/>
 <path d="M250 1174 c0 -3 9 -17 20 -31 11 -14 20 -34 20 -44 0 -11 7 -19 15 -19 19 0 19 -1 -11 54 -22 40 -44 60 -44 40z"/>
 <path d="M628 1113 c-16 -4 -26 -33 -12 -33 13 0 44 21 44 30 0 10 -3 11 -32 3z"/>
 <path d="M560 1085 c0 -8 5 -15 10 -15 6 0 10 7 10 15 0 8 -4 15 -10 15 -5 0 -10 -7 -10 -15z"/>
 <path d="M441 1040 c-38 -28 -81 -83 -81 -104 0 -5 18 11 39 35 21 25 55 53 75 64 20 11 36 23 36 27 0 16 -28 7 -69 -22z"/>
 <path d="M290 1030 c0 -5 7 -10 15 -10 8 0 15 5 15 10 0 6 -7 10 -15 10 -8 0 -15 -4 -15 -10z"/>
 <path d="M274 958 c-3 -18 -13 -43 -22 -56 -8 -12 -12 -25 -9 -28 7 -7 51 61 61 94 5 16 3 22 -8 22 -8 0 -17 -14 -22 -32z"/>
 <path d="M340 890 c0 -5 7 -10 15 -10 8 0 15 5 15 10 0 6 -7 10 -15 10 -8 0 -15 -4 -15 -10z"/>
 <path d="M460 850 c0 -5 5 -10 10 -10 6 0 10 5 10 10 0 6 -4 10 -10 10 -5 0 -10 -4 -10 -10z"/>
 <path d="M510 853 c1 -16 66 -116 82 -127 32 -20 28 2 -7 37 -19 19 -35 44 -35 54 0 19 -18 43 -32 43 -4 0 -8 -3 -8 -7z"/>
 <path d="M210 840 c0 -5 5 -10 10 -10 6 0 10 5 10 10 0 6 -4 10 -10 10 -5 0 -10 -4 -10 -10z"/>
 <path d="M150 775 c-7 -9 -10 -18 -7 -22 8 -7 37 15 37 28 0 14 -16 11 -30 -6z"/>
 <path d="M640 702 c0 -12 51 -34 59 -27 7 8 -28 35 -46 35 -7 0 -13 -4 -13 -8z"/>
 </g>
<g id="layer7" fill="#8dde00" stroke="none">
 <path d="M500 1330 c0 -5 5 -10 10 -10 6 0 10 5 10 10 0 6 -4 10 -10 10 -5 0 -10 -4 -10 -10z"/>
 <path d="M160 1267 c0 -17 68 -83 76 -74 8 7 -54 87 -67 87 -5 0 -9 -6 -9 -13z"/>
 <path d="M600 1201 c0 -13 29 -35 37 -28 7 8 -15 37 -28 37 -5 0 -9 -4 -9 -9z"/>
 <path d="M645 1140 c-8 -14 3 -30 21 -30 8 0 14 9 14 20 0 21 -24 28 -35 10z"/>
 <path d="M580 1090 c0 -5 5 -10 10 -10 6 0 10 5 10 10 0 6 -4 10 -10 10 -5 0 -10 -4 -10 -10z"/>
 <path d="M470 1060 c0 -13 20 -13 40 0 12 8 9 10 -12 10 -16 0 -28 -4 -28 -10z"/>
 <path d="M290 1005 c0 -8 5 -15 10 -15 6 0 10 7 10 15 0 8 -4 15 -10 15 -5 0 -10 -7 -10 -15z"/>
 <path d="M400 1010 c0 -5 5 -10 10 -10 6 0 10 5 10 10 0 6 -4 10 -10 10 -5 0 -10 -4 -10 -10z"/>
 <path d="M367 963 c-4 -3 -7 -16 -6 -27 0 -19 1 -19 10 3 10 24 8 36 -4 24z"/>
 <path d="M350 861 c0 -5 5 -13 10 -16 6 -3 10 -2 10 4 0 5 -4 13 -10 16 -5 3 -10 2 -10 -4z"/>
 <path d="M470 860 c0 -5 9 -10 20 -10 11 0 20 5 20 10 0 6 -9 10 -20 10 -11 0 -20 -4 -20 -10z"/>
 <path d="M437 836 c-21 -16 -22 -26 -3 -26 8 0 17 7 20 16 9 23 4 25 -17 10z"/>
 <path d="M540 791 c0 -5 5 -13 10 -16 6 -3 10 -2 10 4 0 5 -4 13 -10 16 -5 3 -10 2 -10 -4z"/>
 <path d="M124 746 c-22 -17 -11 -35 13 -20 19 12 29 34 16 34 -5 0 -18 -6 -29 -14z"/>
 <path d="M590 730 c0 -5 7 -10 15 -10 8 0 15 5 15 10 0 6 -7 10 -15 10 -8 0 -15 -4 -15 -10z"/>
 <path d="M662 683 c4 -20 -61 -68 -114 -84 -21 -7 -38 -19 -38 -26 0 -10 7 -12 23 -7 38 12 93 42 126 69 33 28 42 65 16 65 -9 0 -15 -7 -13 -17z"/>
 <path d="M470 565 c0 -8 5 -15 10 -15 6 0 10 7 10 15 0 8 -4 15 -10 15 -5 0 -10 -7 -10 -15z"/>
 </g>
<g id="layer8" fill="#00cad1" stroke="none">
 <path d="M550 1335 c0 -16 52 -115 61 -115 14 0 10 21 -14 69 -19 38 -47 66 -47 46z"/>
 <path d="M650 1171 c0 -6 5 -13 10 -16 12 -7 13 -25 1 -43 -4 -7 -34 -20 -67 -28 -80 -21 -164 -61 -164 -79 0 -19 0 -19 51 10 25 13 73 31 107 39 91 21 121 52 99 100 -11 25 -37 36 -37 17z"/>
 <path d="M240 1150 c0 -5 7 -10 15 -10 8 0 15 5 15 10 0 6 -7 10 -15 10 -8 0 -15 -4 -15 -10z"/>
 <path d="M268 1045 c-4 -61 -11 -93 -27 -118 -24 -40 -27 -57 -7 -57 8 0 17 12 21 28 7 27 28 81 46 114 15 28 10 68 -10 94 l-18 23 -5 -84z"/>
 <path d="M394 973 c-3 -10 -13 -33 -21 -51 -15 -30 -15 -34 0 -50 16 -15 17 -14 17 19 0 19 7 44 15 55 8 10 15 25 15 32 0 18 -20 14 -26 -5z"/>
 <path d="M468 889 c-28 -16 -21 -31 11 -24 25 5 33 1 60 -33 17 -22 31 -47 31 -55 0 -18 28 -43 37 -33 4 4 2 15 -5 24 -7 9 -21 36 -32 59 -11 25 -31 48 -49 57 -35 19 -31 18 -53 5z"/>
 <path d="M400 834 c0 -9 5 -14 12 -12 18 6 21 28 4 28 -9 0 -16 -7 -16 -16z"/>
 <path d="M137 793 c-12 -11 -8 -23 8 -23 8 0 15 7 15 15 0 16 -12 20 -23 8z"/>
 <path d="M620 730 c0 -12 48 -25 58 -16 8 9 -18 26 -40 26 -10 0 -18 -4 -18 -10z"/>
 <path d="M690 696 c0 -9 7 -16 16 -16 9 0 14 5 12 12 -6 18 -28 21 -28 4z"/>
 </g>
<g id="layer9" fill="#00ab94" stroke="none">
 <path d="M92 1226 c-52 -56 -68 -88 -81 -161 -14 -74 -14 -212 -1 -220 6 -3 10 -18 10 -32 0 -32 46 -113 64 -113 7 0 21 9 32 21 18 20 18 22 0 72 -44 121 -29 256 40 369 37 60 41 77 22 96 -21 21 -45 13 -86 -32z"/>
 </g>
<g id="layer10" fill="#75d900" stroke="none">
 <path d="M302 1349 c-62 -8 -142 -43 -142 -63 0 -6 23 -33 50 -60 28 -27 50 -57 50 -68 0 -11 7 -18 20 -18 28 0 25 10 -17 59 -36 42 -36 44 -17 58 38 29 113 63 153 69 22 4 46 13 52 20 9 12 3 14 -37 13 -27 -1 -77 -5 -112 -10z"/>
 <path d="M485 1340 c3 -5 19 -10 36 -10 16 0 29 5 29 10 0 6 -16 10 -36 10 -21 0 -33 -4 -29 -10z"/>
 <path d="M560 1251 c0 -14 60 -91 70 -91 15 0 12 16 -5 30 -8 7 -15 20 -15 29 0 9 -11 21 -25 28 -14 6 -25 8 -25 4z"/>
 <path d="M280 1100 c0 -5 7 -10 15 -10 8 0 15 5 15 10 0 6 -7 10 -15 10 -8 0 -15 -4 -15 -10z"/>
 <path d="M590 1085 c0 -8 7 -15 15 -15 8 0 15 7 15 15 0 8 -7 15 -15 15 -8 0 -15 -7 -15 -15z"/>
 <path d="M427 1045 c-20 -14 -37 -30 -37 -35 0 -13 17 -13 25 0 3 6 17 10 30 10 21 0 45 24 45 44 0 13 -28 4 -63 -19z"/>
 <path d="M270 970 c0 -5 7 -10 15 -10 8 0 15 5 15 10 0 6 -7 10 -15 10 -8 0 -15 -4 -15 -10z"/>
 <path d="M365 967 c-4 -10 -5 -21 -1 -24 10 -10 18 4 13 24 -4 17 -4 17 -12 0z"/>
 <path d="M262 903 c-12 -13 -22 -29 -22 -34 0 -5 -7 -9 -15 -9 -8 0 -15 -9 -15 -19 0 -11 -11 -28 -24 -38 -13 -10 -26 -29 -30 -41 -4 -12 -18 -25 -32 -28 -15 -4 -27 -16 -31 -32 -5 -21 1 -31 38 -63 56 -48 131 -86 192 -98 26 -5 50 -11 52 -13 3 -3 8 -46 12 -97 l6 -92 -37 -31 c-70 -58 -82 -121 -44 -245 18 -61 20 -63 53 -63 24 0 35 5 40 19 3 10 14 21 24 24 40 10 107 137 73 137 -4 0 -13 10 -21 23 -10 17 -11 19 0 10 7 -7 19 -13 26 -13 22 0 14 35 -17 78 -16 23 -30 53 -30 67 0 26 0 26 29 9 18 -11 33 -31 40 -55 23 -77 94 -119 200 -119 40 0 51 3 51 16 0 13 3 14 15 4 43 -36 61 38 24 100 -64 107 -154 148 -228 104 -27 -16 -29 -15 -79 21 -29 20 -53 45 -54 56 -4 51 -4 52 52 66 58 15 119 47 169 89 37 31 39 50 9 57 -13 3 -33 9 -45 12 -14 5 -23 3 -23 -3 0 -6 9 -14 20 -17 32 -10 23 -33 -26 -64 -91 -58 -226 -71 -308 -31 -54 27 -146 112 -146 135 0 8 18 34 40 60 41 47 95 133 89 140 -3 2 -14 -8 -27 -22z m73 -753 c-3 -5 -12 -10 -18 -10 -7 0 -6 4 3 10 19 12 23 12 15 0z"/>
 <path d="M456 844 c-4 -9 -4 -19 -2 -21 8 -8 26 8 26 23 0 19 -16 18 -24 -2z"/>
 <path d="M362 828 c6 -18 28 -21 28 -4 0 9 -7 16 -16 16 -9 0 -14 -5 -12 -12z"/>
 <path d="M520 821 c0 -5 5 -13 10 -16 6 -3 10 -2 10 4 0 5 -4 13 -10 16 -5 3 -10 2 -10 -4z"/>
 <path d="M563 760 c9 -6 17 -18 17 -25 0 -8 5 -15 11 -15 6 0 9 10 7 23 -2 15 -11 23 -28 25 -22 2 -23 1 -7 -8z"/>
 </g>
<g id="layer11" fill="#00cdb3" stroke="none">
 <path d="M560 1325 c-10 -12 -8 -21 10 -50 12 -19 26 -35 31 -35 5 0 9 -8 9 -18 0 -10 11 -29 25 -42 48 -45 22 -95 -49 -97 -21 -1 -42 -7 -46 -13 -4 -7 -13 -9 -19 -6 -14 9 -71 -24 -71 -41 0 -7 -9 -13 -20 -13 -13 0 -20 -7 -20 -20 0 -11 -7 -20 -15 -20 -8 0 -18 -8 -23 -17 -14 -27 -13 -100 1 -110 26 -21 60 -22 85 -2 14 10 38 19 53 19 24 0 29 -4 29 -24 0 -37 11 -57 36 -67 13 -4 24 -15 24 -23 0 -17 80 -66 108 -66 13 0 31 17 51 49 52 80 63 128 59 243 -3 90 -7 110 -32 158 -42 81 -74 118 -140 167 -65 48 -68 49 -86 28z"/>
 <path d="M151 1180 c-51 -71 -74 -144 -73 -240 0 -92 25 -183 52 -187 19 -3 100 94 100 119 0 10 4 18 10 18 9 0 43 55 46 75 1 6 3 12 4 15 1 3 2 36 3 73 2 64 0 71 -33 115 -47 62 -71 65 -109 12z"/>
 </g>
<g id="layer12" fill="#78e200" stroke="none">
 <path d="M318 1353 c12 -2 32 -2 45 0 12 2 2 4 -23 4 -25 0 -35 -2 -22 -4z"/>
 <path d="M435 1350 c-3 -5 -22 -10 -41 -10 -51 0 -184 -73 -184 -101 0 -6 14 -22 30 -36 17 -13 30 -31 30 -39 0 -8 4 -14 9 -14 5 0 7 -9 4 -20 -3 -12 0 -20 7 -20 10 0 11 -17 6 -72 -4 -40 -10 -75 -15 -78 -15 -9 -33 -51 -28 -65 3 -7 -2 -21 -12 -31 -9 -11 -20 -27 -24 -37 -4 -9 -15 -20 -24 -24 -26 -10 -45 -31 -38 -43 3 -5 1 -10 -4 -10 -28 0 -6 -45 47 -97 73 -74 132 -103 203 -103 69 0 200 34 211 54 5 9 16 16 23 16 8 0 15 5 15 10 0 6 7 10 15 10 25 0 28 27 6 51 -12 13 -21 26 -21 31 0 4 -13 8 -29 8 -23 0 -32 7 -45 35 -9 19 -21 35 -26 35 -5 0 -7 6 -4 14 8 20 -13 56 -33 56 -9 0 -25 -8 -36 -17 -11 -11 -35 -18 -58 -18 -33 0 -39 3 -39 22 0 12 -4 24 -8 27 -4 3 -6 21 -4 42 3 25 10 38 24 42 12 3 18 12 16 26 -2 15 2 20 15 18 9 -2 17 3 17 11 0 13 149 67 187 67 13 0 23 8 27 23 10 38 7 52 -16 62 -13 6 -27 20 -33 33 -5 12 -13 22 -18 22 -4 0 -5 5 -2 10 4 6 -2 31 -12 55 -15 38 -22 45 -46 45 -16 0 -26 4 -22 10 4 6 -8 10 -29 10 -19 0 -38 -4 -41 -10z"/>
 <path d="M663 393 c-18 -9 -33 -23 -33 -30 0 -16 0 -16 44 2 20 8 36 22 36 30 0 18 -6 18 -47 -2z"/>
 <path d="M703 344 c-35 -15 -45 -45 -15 -43 33 1 87 26 87 40 0 19 -33 21 -72 3z"/>
 <path d="M773 293 c-24 -9 -13 -28 22 -39 37 -12 42 -6 25 27 -11 19 -23 22 -47 12z"/>
 <path d="M580 286 c0 -20 25 -66 36 -66 17 0 17 -1 3 39 -6 17 -17 31 -25 31 -8 0 -14 -2 -14 -4z"/>
 <path d="M650 265 c0 -17 31 -75 40 -75 19 0 23 30 6 55 -14 22 -46 35 -46 20z"/>
 <path d="M334 246 c-10 -8 -16 -18 -12 -22 10 -9 58 12 58 26 0 14 -23 12 -46 -4z"/>
 <path d="M440 242 c0 -13 50 -82 60 -82 5 0 11 9 15 20 4 14 -2 27 -22 45 -28 24 -53 32 -53 17z"/>
 <path d="M740 223 c0 -15 23 -33 43 -33 30 0 16 34 -16 38 -15 2 -27 -1 -27 -5z"/>
 <path d="M333 178 c-33 -20 -42 -41 -23 -53 14 -9 80 42 80 61 0 19 -18 17 -57 -8z"/>
 <path d="M420 152 c0 -24 28 -62 46 -62 19 0 18 15 -3 51 -19 32 -43 39 -43 11z"/>
 <path d="M333 93 c-16 -6 -17 -49 -2 -59 14 -8 25 4 33 39 6 27 -2 32 -31 20z"/>
 <path d="M397 73 c-2 -4 -7 -20 -11 -35 -5 -21 -3 -28 8 -28 19 0 38 26 34 46 -3 19 -23 30 -31 17z"/>
 </g>

</svg>