<!DOCTYPE svg PUBLIC "-//W3C//DTD SVG 20010904//EN" "http://www.w3.org/TR/2001/REC-SVG-20010904/DTD/svg10.dtd">
<svg version="1.0" xmlns="http://www.w3.org/2000/svg" width="134px" height="136px" viewBox="0 0 1340 1360" preserveAspectRatio="xMidYMid meet">
<g id="layer1" fill="#c5c300" stroke="none">
 </g>
<g id="layer2" fill="#949900" stroke="none">
 <path d="M200 1025 c0 -8 7 -15 15 -15 8 0 15 7 15 15 0 8 -7 15 -15 15 -8 0 -15 -7 -15 -15z"/>
 <path d="M1110 1025 c0 -8 7 -15 15 -15 8 0 15 7 15 15 0 8 -7 15 -15 15 -8 0 -15 -7 -15 -15z"/>
 </g>
<g id="layer3" fill="#90d500" stroke="none">
 <path d="M807 543 c-4 -3 -7 -11 -7 -17 0 -6 5 -5 12 2 6 6 9 14 7 17 -3 3 -9 2 -12 -2z"/>
 </g>
<g id="layer4" fill="#2bb500" stroke="none">
 <path d="M260 1035 c0 -8 5 -15 10 -15 6 0 10 7 10 15 0 8 -4 15 -10 15 -5 0 -10 -7 -10 -15z"/>
 <path d="M1060 1036 c0 -9 7 -16 16 -16 17 0 14 22 -4 28 -7 2 -12 -3 -12 -12z"/>
 <path d="M190 1015 c0 -8 7 -15 15 -15 8 0 15 7 15 15 0 8 -7 15 -15 15 -8 0 -15 -7 -15 -15z"/>
 <path d="M1120 1020 c0 -5 7 -10 15 -10 8 0 15 5 15 10 0 6 -7 10 -15 10 -8 0 -15 -4 -15 -10z"/>
 </g>
<g id="layer5" fill="#d1be00" stroke="none">
 </g>
<g id="layer6" fill="#34eb00" stroke="none">
 <path d="M607 783 c-4 -3 -7 -11 -7 -17 0 -6 5 -5 12 2 6 6 9 14 7 17 -3 3 -9 2 -12 -2z"/>
 <path d="M567 733 c-4 -3 -7 -11 -7 -17 0 -6 5 -5 12 2 6 6 9 14 7 17 -3 3 -9 2 -12 -2z"/>
 <path d="M580 660 c0 -5 5 -10 10 -10 6 0 10 5 10 10 0 6 -4 10 -10 10 -5 0 -10 -4 -10 -10z"/>
 <path d="M720 620 c0 -5 7 -10 15 -10 8 0 15 5 15 10 0 6 -7 10 -15 10 -8 0 -15 -4 -15 -10z"/>
 <path d="M510 585 c0 -8 5 -15 10 -15 6 0 10 7 10 15 0 8 -4 15 -10 15 -5 0 -10 -7 -10 -15z"/>
 </g>
<g id="layer7" fill="#b19800" stroke="none">
 <path d="M1120 780 c0 -5 5 -10 10 -10 6 0 10 5 10 10 0 6 -4 10 -10 10 -5 0 -10 -4 -10 -10z"/>
 <path d="M333 705 c0 -14 3 -25 8 -25 5 0 9 11 9 25 0 14 -4 25 -9 25 -5 0 -8 -11 -8 -25z"/>
 <path d="M1130 720 c0 -5 5 -10 10 -10 6 0 10 5 10 10 0 6 -4 10 -10 10 -5 0 -10 -4 -10 -10z"/>
 <path d="M1080 550 c0 -5 5 -10 10 -10 6 0 10 5 10 10 0 6 -4 10 -10 10 -5 0 -10 -4 -10 -10z"/>
 </g>
<g id="layer8" fill="#07ef00" stroke="none">
 <path d="M620 800 c0 -5 5 -10 10 -10 6 0 10 5 10 10 0 6 -4 10 -10 10 -5 0 -10 -4 -10 -10z"/>
 <path d="M580 750 c0 -5 5 -10 10 -10 6 0 10 5 10 10 0 6 -4 10 -10 10 -5 0 -10 -4 -10 -10z"/>
 <path d="M630 720 c0 -5 5 -10 10 -10 6 0 10 5 10 10 0 6 -4 10 -10 10 -5 0 -10 -4 -10 -10z"/>
 <path d="M1321 704 c0 -11 3 -14 6 -6 3 7 2 16 -1 19 -3 4 -6 -2 -5 -13z"/>
 <path d="M540 700 c0 -5 5 -10 10 -10 6 0 10 5 10 10 0 6 -4 10 -10 10 -5 0 -10 -4 -10 -10z"/>
 <path d="M600 680 c0 -5 5 -10 10 -10 6 0 10 5 10 10 0 6 -4 10 -10 10 -5 0 -10 -4 -10 -10z"/>
 <path d="M505 659 c-4 -6 -5 -13 -2 -16 7 -7 27 6 27 18 0 12 -17 12 -25 -2z"/>
 <path d="M700 640 c0 -5 5 -10 10 -10 6 0 10 5 10 10 0 6 -4 10 -10 10 -5 0 -10 -4 -10 -10z"/>
 <path d="M560 630 c0 -5 5 -10 10 -10 6 0 10 5 10 10 0 6 -4 10 -10 10 -5 0 -10 -4 -10 -10z"/>
 <path d="M700 561 c0 -10 30 -24 37 -17 3 3 2 9 -2 15 -8 13 -35 15 -35 2z"/>
 </g>
<g id="layer9" fill="#10ce00" stroke="none">
 <path d="M1050 900 c0 -5 5 -10 10 -10 6 0 10 5 10 10 0 6 -4 10 -10 10 -5 0 -10 -4 -10 -10z"/>
 <path d="M170 880 c0 -5 5 -10 10 -10 6 0 10 5 10 10 0 6 -4 10 -10 10 -5 0 -10 -4 -10 -10z"/>
 <path d="M130 830 c0 -5 5 -10 10 -10 6 0 10 5 10 10 0 6 -4 10 -10 10 -5 0 -10 -4 -10 -10z"/>
 <path d="M182 809 c-7 -12 -11 -23 -8 -27 7 -6 46 27 46 40 0 16 -25 8 -38 -13z"/>
 <path d="M1060 820 c0 -5 5 -10 10 -10 6 0 10 5 10 10 0 6 -4 10 -10 10 -5 0 -10 -4 -10 -10z"/>
 <path d="M970 800 c0 -5 5 -10 10 -10 6 0 10 5 10 10 0 6 -4 10 -10 10 -5 0 -10 -4 -10 -10z"/>
 <path d="M1130 780 c0 -5 5 -10 10 -10 6 0 10 5 10 10 0 6 -4 10 -10 10 -5 0 -10 -4 -10 -10z"/>
 <path d="M280 770 c0 -5 5 -10 10 -10 6 0 10 5 10 10 0 6 -4 10 -10 10 -5 0 -10 -4 -10 -10z"/>
 <path d="M320 740 c0 -5 5 -10 10 -10 6 0 10 5 10 10 0 6 -4 10 -10 10 -5 0 -10 -4 -10 -10z"/>
 <path d="M260 710 c0 -12 40 -33 48 -25 4 4 -2 13 -12 21 -23 16 -36 18 -36 4z"/>
 <path d="M1122 708 c6 -18 28 -21 28 -4 0 9 -7 16 -16 16 -9 0 -14 -5 -12 -12z"/>
 </g>
<g id="layer10" fill="#a2a300" stroke="none">
 <path d="M1110 905 c0 -87 3 -105 15 -105 12 0 15 18 15 105 0 87 -3 105 -15 105 -12 0 -15 -18 -15 -105z"/>
 <path d="M1116 715 c-3 -9 -6 -48 -6 -86 0 -55 3 -69 15 -69 12 0 15 15 15 73 0 75 -11 114 -24 82z"/>
 </g>
<g id="layer11" fill="#95a800" stroke="none">
 <path d="M200 965 c0 -33 4 -45 15 -45 11 0 15 12 15 45 0 33 -4 45 -15 45 -11 0 -15 -12 -15 -45z"/>
 <path d="M201 716 c-1 -69 1 -136 5 -150 15 -60 23 -17 23 124 0 119 -3 150 -14 150 -10 0 -13 -28 -14 -124z"/>
 <path d="M1110 550 c0 -5 5 -10 10 -10 6 0 10 5 10 10 0 6 -4 10 -10 10 -5 0 -10 -4 -10 -10z"/>
 </g>
<g id="layer12" fill="#ce8600" stroke="none">
 <path d="M1070 975 c0 -42 3 -55 15 -55 12 0 15 13 15 55 0 42 -3 55 -15 55 -12 0 -15 -13 -15 -55z"/>
 <path d="M1076 835 c-3 -9 -6 -73 -6 -141 0 -104 2 -124 15 -124 13 0 15 21 15 128 0 123 -9 175 -24 137z"/>
 <path d="M1040 810 c0 -5 5 -10 10 -10 6 0 10 5 10 10 0 6 -4 10 -10 10 -5 0 -10 -4 -10 -10z"/>
 <path d="M1170 690 c0 -5 7 -10 15 -10 8 0 15 5 15 10 0 6 -7 10 -15 10 -8 0 -15 -4 -15 -10z"/>
 <path d="M230 544 c0 -17 22 -14 28 4 2 7 -3 12 -12 12 -9 0 -16 -7 -16 -16z"/>
 </g>
<g id="layer13" fill="#d77f00" stroke="none">
 <path d="M240 928 c0 -62 3 -123 6 -135 14 -53 22 -15 23 112 2 115 0 135 -14 135 -13 0 -15 -18 -15 -112z"/>
 <path d="M92 758 c6 -18 28 -21 28 -4 0 9 -7 16 -16 16 -9 0 -14 -5 -12 -12z"/>
 <path d="M240 640 c0 -64 3 -80 15 -80 12 0 15 16 15 80 0 64 -3 80 -15 80 -12 0 -15 -16 -15 -80z"/>
 </g>
<g id="layer14" fill="#aecc00" stroke="none">
 <path d="M682 803 c2 -122 6 -167 16 -171 9 -3 12 35 12 167 0 147 -2 171 -15 171 -13 0 -15 -23 -13 -167z"/>
 <path d="M680 460 c0 -67 -4 -110 -10 -110 -5 0 -10 -7 -10 -15 0 -8 5 -15 10 -15 6 0 10 7 10 15 0 8 7 15 15 15 12 0 15 19 15 110 0 91 -3 110 -15 110 -12 0 -15 -19 -15 -110z"/>
 </g>
<g id="layer15" fill="#fe5e00" stroke="none">
 <path d="M1025 845 c-27 -36 -51 -71 -53 -79 -5 -22 18 -30 36 -12 15 15 15 18 2 26 -15 9 -16 9 35 25 17 5 21 25 4 25 -5 0 1 15 15 33 15 19 26 37 26 40 0 18 -19 1 -65 -58z"/>
 <path d="M195 889 c-4 -6 -5 -13 -2 -16 7 -7 27 6 27 18 0 12 -17 12 -25 -2z"/>
 <path d="M154 839 c-3 -6 0 -15 7 -20 14 -8 14 -8 -36 -24 -19 -6 -20 -45 -1 -45 17 0 76 68 76 87 0 16 -36 17 -46 2z"/>
 <path d="M260 760 c0 -5 5 -10 10 -10 6 0 10 -9 10 -19 0 -18 34 -51 52 -51 21 0 5 48 -22 68 -31 24 -50 28 -50 12z"/>
 <path d="M1130 760 c0 -5 5 -10 10 -10 6 0 10 5 10 10 0 6 -4 10 -10 10 -5 0 -10 -4 -10 -10z"/>
 <path d="M1170 731 c0 -6 -7 -8 -15 -5 -25 10 -17 -12 11 -31 31 -20 56 -6 38 22 -13 20 -34 29 -34 14z"/>
 <path d="M222 558 c6 -18 28 -21 28 -4 0 9 -7 16 -16 16 -9 0 -14 -5 -12 -12z"/>
 <path d="M1090 554 c0 -9 7 -14 17 -12 25 5 28 28 4 28 -12 0 -21 -6 -21 -16z"/>
 </g>
<g id="layer16" fill="#fda900" stroke="none">
 <path d="M640 890 c0 -64 3 -80 15 -80 12 0 15 16 15 80 0 64 -3 80 -15 80 -12 0 -15 -16 -15 -80z"/>
 <path d="M640 550 c0 -171 2 -200 15 -200 13 0 15 29 15 200 0 171 -2 200 -15 200 -13 0 -15 -29 -15 -200z"/>
 <path d="M530 670 c0 -5 5 -10 10 -10 6 0 10 5 10 10 0 6 -4 10 -10 10 -5 0 -10 -4 -10 -10z"/>
 <path d="M570 660 c0 -5 5 -10 10 -10 6 0 10 5 10 10 0 6 -4 10 -10 10 -5 0 -10 -4 -10 -10z"/>
 <path d="M501 614 c0 -11 3 -14 6 -6 3 7 2 16 -1 19 -3 4 -6 -2 -5 -13z"/>
 <path d="M530 610 c0 -5 5 -10 10 -10 6 0 10 5 10 10 0 6 -4 10 -10 10 -5 0 -10 -4 -10 -10z"/>
 <path d="M700 580 c0 -5 5 -10 10 -10 6 0 10 5 10 10 0 6 -4 10 -10 10 -5 0 -10 -4 -10 -10z"/>
 <path d="M780 524 c0 -17 22 -14 28 4 2 7 -3 12 -12 12 -9 0 -16 -7 -16 -16z"/>
 </g>
<g id="layer17" fill="#4ae800" stroke="none">
 <path d="M690 795 c0 -122 2 -145 15 -145 13 0 15 23 15 145 0 122 -2 145 -15 145 -13 0 -15 -23 -15 -145z"/>
 <path d="M630 820 c0 -5 7 -10 15 -10 8 0 15 5 15 10 0 6 -7 10 -15 10 -8 0 -15 -4 -15 -10z"/>
 <path d="M620 705 c0 -8 5 -15 10 -15 6 0 10 7 10 15 0 8 -4 15 -10 15 -5 0 -10 -7 -10 -15z"/>
 <path d="M520 675 c0 -8 5 -15 10 -15 6 0 10 7 10 15 0 8 -4 15 -10 15 -5 0 -10 -7 -10 -15z"/>
 <path d="M580 650 c0 -5 5 -10 10 -10 6 0 10 5 10 10 0 6 -4 10 -10 10 -5 0 -10 -4 -10 -10z"/>
 <path d="M484 624 c3 -9 6 -19 6 -22 0 -9 20 21 20 31 0 4 -7 7 -16 7 -11 0 -14 -5 -10 -16z"/>
 <path d="M540 600 c0 -5 5 -10 10 -10 6 0 10 5 10 10 0 6 -4 10 -10 10 -5 0 -10 -4 -10 -10z"/>
 <path d="M760 595 c0 -8 5 -15 10 -15 6 0 10 7 10 15 0 8 -4 15 -10 15 -5 0 -10 -7 -10 -15z"/>
 <path d="M697 563 c-10 -9 -8 -186 2 -201 14 -23 21 12 21 114 0 86 -5 106 -23 87z"/>
 <path d="M770 514 c0 -10 7 -14 22 -12 32 5 35 28 4 28 -17 0 -26 -5 -26 -16z"/>
 <path d="M630 352 c0 -10 33 -42 43 -42 12 0 8 21 -7 36 -16 15 -36 19 -36 6z"/>
 </g>
<g id="layer18" fill="#50c400" stroke="none">
 <path d="M1060 944 c0 -59 24 -55 28 4 2 33 0 42 -12 42 -12 0 -16 -11 -16 -46z"/>
 <path d="M630 940 c0 -11 7 -20 15 -20 8 0 15 9 15 20 0 11 -7 20 -15 20 -8 0 -15 -9 -15 -20z"/>
 <path d="M180 895 c0 -8 5 -15 10 -15 6 0 10 7 10 15 0 8 -4 15 -10 15 -5 0 -10 -7 -10 -15z"/>
 <path d="M1020 870 c0 -5 5 -10 10 -10 6 0 10 5 10 10 0 6 -4 10 -10 10 -5 0 -10 -4 -10 -10z"/>
 <path d="M140 845 c0 -8 5 -15 10 -15 6 0 10 7 10 15 0 8 -4 15 -10 15 -5 0 -10 -7 -10 -15z"/>
 <path d="M987 833 c-12 -11 -8 -23 8 -23 8 0 15 7 15 15 0 16 -12 20 -23 8z"/>
 <path d="M1053 813 c-15 -6 -17 -33 -3 -33 6 0 10 -41 10 -102 0 -57 3 -113 6 -125 7 -25 42 -37 61 -21 19 15 16 31 -4 23 -10 -3 -22 -7 -26 -8 -5 -1 -8 60 -7 136 1 140 0 145 -37 130z"/>
 <path d="M160 775 c0 -8 5 -15 10 -15 6 0 10 7 10 15 0 8 -4 15 -10 15 -5 0 -10 -7 -10 -15z"/>
 <path d="M1140 776 c0 -9 7 -16 16 -16 17 0 14 22 -4 28 -7 2 -12 -3 -12 -12z"/>
 <path d="M290 760 c0 -5 7 -10 15 -10 8 0 15 5 15 10 0 6 -7 10 -15 10 -8 0 -15 -4 -15 -10z"/>
 <path d="M1010 761 c0 -5 -9 -13 -20 -16 -11 -3 -20 -11 -20 -16 0 -14 30 -11 46 5 16 17 19 36 4 36 -5 0 -10 -4 -10 -9z"/>
 <path d="M80 752 c0 -14 23 -32 42 -32 23 0 23 9 1 26 -20 15 -43 18 -43 6z"/>
 <path d="M1180 750 c0 -5 5 -10 10 -10 6 0 10 5 10 10 0 6 -4 10 -10 10 -5 0 -10 -4 -10 -10z"/>
 <path d="M332 728 c6 -18 28 -21 28 -4 0 9 -7 16 -16 16 -9 0 -14 -5 -12 -12z"/>
 <path d="M1213 716 c3 -7 0 -19 -6 -25 -13 -13 -3 -26 12 -16 14 8 14 55 0 55 -6 0 -9 -6 -6 -14z"/>
 <path d="M270 700 c0 -5 7 -10 15 -10 8 0 15 5 15 10 0 6 -7 10 -15 10 -8 0 -15 -4 -15 -10z"/>
 <path d="M340 685 c0 -8 5 -15 10 -15 6 0 10 7 10 15 0 8 -4 15 -10 15 -5 0 -10 -7 -10 -15z"/>
 <path d="M202 549 c2 -7 10 -15 17 -17 8 -3 12 1 9 9 -2 7 -10 15 -17 17 -8 3 -12 -1 -9 -9z"/>
 <path d="M250 544 c0 -17 22 -14 28 4 2 7 -3 12 -12 12 -9 0 -16 -7 -16 -16z"/>
 </g>
<g id="layer19" fill="#36c900" stroke="none">
 <path d="M1120 900 c0 -91 3 -110 15 -110 12 0 15 19 15 110 0 91 -3 110 -15 110 -12 0 -15 -19 -15 -110z"/>
 <path d="M190 949 c0 -45 2 -50 15 -39 9 7 15 29 15 51 0 28 -4 39 -15 39 -11 0 -15 -12 -15 -51z"/>
 <path d="M690 955 c0 -8 7 -15 15 -15 8 0 15 7 15 15 0 8 -7 15 -15 15 -8 0 -15 -7 -15 -15z"/>
 <path d="M1032 878 c-14 -14 -16 -28 -3 -28 9 0 24 30 18 36 -2 2 -9 -2 -15 -8z"/>
 <path d="M150 860 c0 -5 5 -10 10 -10 6 0 10 5 10 10 0 6 -4 10 -10 10 -5 0 -10 -4 -10 -10z"/>
 <path d="M997 833 c-4 -3 -7 -11 -7 -17 0 -6 5 -5 12 2 6 6 9 14 7 17 -3 3 -9 2 -12 -2z"/>
 <path d="M100 799 c-7 -11 -9 -23 -6 -26 8 -9 36 17 36 33 0 21 -18 17 -30 -7z"/>
 <path d="M190 685 c0 -104 2 -125 15 -125 13 0 15 21 15 125 0 104 -2 125 -15 125 -13 0 -15 -21 -15 -125z"/>
 <path d="M1047 803 c-4 -3 -7 -11 -7 -17 0 -6 5 -5 12 2 6 6 9 14 7 17 -3 3 -9 2 -12 -2z"/>
 <path d="M1017 763 c-4 -3 -7 -11 -7 -17 0 -6 5 -5 12 2 6 6 9 14 7 17 -3 3 -9 2 -12 -2z"/>
 <path d="M1180 740 c0 -5 7 -10 15 -10 8 0 15 5 15 10 0 6 -7 10 -15 10 -8 0 -15 -4 -15 -10z"/>
 <path d="M351 704 c0 -11 3 -14 6 -6 3 7 2 16 -1 19 -3 4 -6 -2 -5 -13z"/>
 <path d="M1120 630 c0 -56 3 -70 15 -70 12 0 15 13 15 60 0 57 1 60 19 50 26 -13 31 -13 31 4 0 14 -29 26 -62 26 -16 0 -18 -10 -18 -70z"/>
 <path d="M320 675 c0 -8 5 -15 10 -15 6 0 10 7 10 15 0 8 -4 15 -10 15 -5 0 -10 -7 -10 -15z"/>
 <path d="M230 535 c0 -8 5 -15 10 -15 6 0 10 7 10 15 0 8 -4 15 -10 15 -5 0 -10 -7 -10 -15z"/>
 </g>
<g id="layer20" fill="#70e300" stroke="none">
 <path d="M810 925 c0 -8 7 -15 14 -15 32 0 114 -111 123 -165 7 -44 3 -143 -7 -169 -14 -37 -13 -56 3 -56 28 0 51 204 27 235 -4 6 -10 22 -13 36 -9 37 -63 107 -100 129 -38 24 -47 25 -47 5z"/>
 <path d="M595 899 c-79 -58 -129 -143 -140 -239 -6 -54 -6 -55 25 -69 17 -7 33 -11 36 -8 3 3 -7 24 -22 46 -18 28 -24 45 -17 53 5 7 16 33 24 58 9 29 32 63 64 95 l50 50 3 -42 c3 -47 15 -55 32 -23 13 25 9 102 -5 106 -5 1 -28 -11 -50 -27z"/>
 <path d="M590 770 c0 -5 7 -10 15 -10 8 0 15 5 15 10 0 6 -7 10 -15 10 -8 0 -15 -4 -15 -10z"/>
 <path d="M550 720 c0 -5 7 -10 15 -10 8 0 15 5 15 10 0 6 -7 10 -15 10 -8 0 -15 -4 -15 -10z"/>
 <path d="M626 704 c-3 -9 -6 -92 -6 -186 0 -156 1 -169 18 -166 15 3 17 21 20 186 2 152 0 182 -12 182 -7 0 -17 -7 -20 -16z"/>
 <path d="M500 660 c0 -5 5 -10 10 -10 6 0 10 5 10 10 0 6 -4 10 -10 10 -5 0 -10 -4 -10 -10z"/>
 <path d="M720 631 c0 -5 5 -13 10 -16 6 -3 10 -2 10 4 0 5 -4 13 -10 16 -5 3 -10 2 -10 -4z"/>
 <path d="M546 614 c-25 -24 -19 -36 9 -18 25 16 33 34 16 34 -5 0 -17 -7 -25 -16z"/>
 <path d="M760 601 c0 -5 5 -13 10 -16 6 -3 10 -2 10 4 0 5 -4 13 -10 16 -5 3 -10 2 -10 -4z"/>
 <path d="M465 553 c3 -16 21 -59 39 -98 19 -38 55 -122 81 -185 26 -63 53 -126 60 -140 7 -14 21 -44 30 -67 10 -24 24 -43 32 -43 17 0 18 -1 -16 72 -16 35 -41 92 -56 128 -15 36 -42 97 -60 135 -19 39 -46 105 -62 147 -16 45 -34 78 -42 78 -9 0 -11 -8 -6 -27z"/>
 <path d="M806 553 c9 -36 12 -39 26 -25 14 14 2 42 -21 50 -8 3 -10 -4 -5 -25z"/>
 <path d="M710 550 c0 -5 5 -10 10 -10 6 0 10 5 10 10 0 6 -4 10 -10 10 -5 0 -10 -4 -10 -10z"/>
 <path d="M780 505 c0 -8 5 -15 10 -15 6 0 10 7 10 15 0 8 -4 15 -10 15 -5 0 -10 -7 -10 -15z"/>
 <path d="M917 493 c-4 -3 -7 -11 -7 -17 0 -6 5 -5 12 2 6 6 9 14 7 17 -3 3 -9 2 -12 -2z"/>
 <path d="M680 345 c-7 -9 -10 -18 -7 -21 10 -11 37 5 37 21 0 19 -14 19 -30 0z"/>
 <path d="M797 223 c-4 -3 -7 -11 -7 -17 0 -6 5 -5 12 2 6 6 9 14 7 17 -3 3 -9 2 -12 -2z"/>
 <path d="M767 153 c-4 -3 -7 -11 -7 -17 0 -6 5 -5 12 2 6 6 9 14 7 17 -3 3 -9 2 -12 -2z"/>
 <path d="M736 84 c-9 -24 -8 -25 14 -12 23 15 26 28 6 28 -8 0 -17 -7 -20 -16z"/>
 </g>
<g id="layer21" fill="#ff9500" stroke="none">
 <path d="M643 1090 l6 -272 -75 -94 c-71 -89 -85 -122 -57 -131 6 -2 38 28 70 67 l58 71 3 -193 c1 -106 7 -197 12 -202 6 -6 15 -4 25 4 12 10 15 36 15 127 l0 114 39 -32 c40 -32 71 -34 71 -5 0 9 -25 34 -56 58 l-56 42 4 355 3 356 -34 3 -34 4 6 -272z"/>
 </g>
<g id="layer22" fill="#eb7000" stroke="none">
 <path d="M203 1344 c-3 -9 -3 -115 0 -235 7 -212 6 -219 -13 -229 -11 -6 -20 -17 -20 -26 0 -8 -7 -17 -15 -20 -16 -6 -45 -58 -45 -81 0 -23 30 -14 40 12 5 14 17 28 25 31 8 4 15 12 15 20 0 8 5 14 10 14 6 0 10 -49 10 -127 0 -132 7 -160 34 -150 13 5 16 22 16 87 0 65 3 80 15 80 9 0 18 -7 21 -15 7 -17 54 -21 54 -4 0 12 -25 39 -36 39 -4 0 -18 12 -31 26 l-25 27 8 283 7 284 -32 0 c-20 0 -34 -6 -38 -16z"/>
 <path d="M1073 1131 c4 -150 3 -231 -4 -231 -5 0 -14 -11 -19 -25 -5 -14 -14 -25 -20 -25 -5 0 -10 -6 -10 -14 0 -8 -9 -21 -19 -28 -19 -13 -40 -68 -27 -68 14 0 66 44 66 57 0 7 9 17 20 23 20 10 20 8 20 -124 0 -137 6 -160 36 -135 12 10 15 29 12 86 -2 51 1 73 9 73 6 0 13 -4 15 -9 2 -5 15 -13 31 -16 23 -6 27 -4 27 14 0 12 -6 21 -14 21 -8 0 -16 7 -20 15 -3 8 -12 15 -20 15 -9 0 -18 10 -21 23 -4 13 -5 146 -3 297 l3 275 -34 3 -34 4 6 -231z"/>
 </g>
<g id="layer23" fill="#5caf00" stroke="none">
 <path d="M151 1036 c-49 -18 -111 -74 -132 -120 -23 -51 -25 -149 -3 -219 8 -29 50 -131 92 -227 63 -142 82 -177 105 -188 29 -14 67 -2 67 22 0 7 -41 107 -92 222 -82 187 -91 215 -91 269 0 72 26 129 79 173 26 21 35 36 32 53 -4 28 -14 31 -57 15z"/>
 <path d="M273 1043 c-7 -2 -13 -12 -13 -20 0 -10 6 -13 16 -9 9 3 18 6 20 6 2 0 4 7 4 15 0 15 -6 17 -27 8z"/>
 <path d="M991 1024 c-48 -24 -111 -90 -111 -116 0 -18 63 -98 77 -98 7 0 13 9 13 20 0 35 38 97 80 131 45 36 48 48 22 72 -23 21 -18 22 -81 -9z"/>
 <path d="M1134 1035 c-9 -23 6 -34 39 -28 28 5 39 33 13 33 -8 0 -21 3 -30 6 -10 4 -18 0 -22 -11z"/>
 <path d="M1321 894 c0 -11 3 -14 6 -6 3 7 2 16 -1 19 -3 4 -6 -2 -5 -13z"/>
 <path d="M976 648 c-31 -112 -31 -112 19 -229 51 -116 82 -154 119 -143 41 12 40 22 -4 121 -23 54 -58 134 -76 178 -32 78 -50 100 -58 73z"/>
 <path d="M307 373 c-4 -3 -7 -11 -7 -17 0 -6 5 -5 12 2 6 6 9 14 7 17 -3 3 -9 2 -12 -2z"/>
 <path d="M1167 363 c-4 -3 -7 -11 -7 -17 0 -6 5 -5 12 2 6 6 9 14 7 17 -3 3 -9 2 -12 -2z"/>
 </g>
<g id="layer24" fill="#66bc00" stroke="none">
 <path d="M268 1029 c-15 -8 -18 -25 -18 -112 0 -112 6 -147 25 -147 6 0 22 -9 35 -20 13 -11 27 -20 32 -20 16 0 4 -45 -12 -48 -9 -1 -26 7 -38 18 -12 12 -27 18 -32 15 -6 -3 -10 -44 -10 -91 0 -76 -2 -85 -17 -82 -16 3 -18 18 -20 118 -2 63 -5 126 -9 139 l-5 24 -17 -24 c-34 -48 -47 -59 -74 -59 -16 0 -28 -3 -28 -7 1 -22 187 -427 197 -430 12 -4 33 36 93 179 24 56 27 73 19 100 -12 43 -11 134 1 180 6 20 26 59 45 87 l35 51 -25 40 c-28 44 -106 100 -139 100 -12 0 -29 -5 -38 -11z"/>
 <path d="M1148 1019 c-15 -9 -18 -26 -18 -118 l0 -109 40 -35 c23 -20 40 -44 40 -56 0 -21 -24 -29 -35 -11 -3 6 -15 10 -26 10 -17 0 -19 -7 -19 -75 0 -60 -3 -77 -16 -82 -27 -10 -34 17 -34 140 0 95 -3 117 -14 117 -16 0 -46 -26 -46 -41 0 -5 -8 -9 -19 -9 -29 0 -42 -72 -20 -108 5 -9 41 -87 78 -172 40 -91 75 -156 83 -158 15 -3 27 17 76 128 11 25 32 72 47 105 56 126 75 191 75 258 0 84 -25 142 -81 190 -43 38 -78 46 -111 26z"/>
 <path d="M148 963 c-45 -47 -64 -85 -73 -144 -5 -34 -3 -49 6 -55 7 -4 14 -3 16 3 2 6 12 20 21 31 9 11 28 34 42 52 14 18 31 39 38 46 15 16 13 96 -3 101 -6 2 -27 -14 -47 -34z"/>
 <path d="M1018 953 c-20 -21 -45 -57 -56 -80 -10 -24 -22 -40 -25 -36 -15 14 -6 -14 13 -42 11 -16 20 -25 20 -19 0 6 14 26 30 44 17 18 30 37 30 42 0 4 6 8 13 8 16 0 41 68 36 95 -6 30 -23 27 -61 -12z"/>
 <path d="M520 950 c0 -5 7 -10 15 -10 8 0 15 5 15 10 0 6 -7 10 -15 10 -8 0 -15 -4 -15 -10z"/>
 <path d="M882 889 c2 -7 10 -15 17 -17 8 -3 12 1 9 9 -2 7 -10 15 -17 17 -8 3 -12 -1 -9 -9z"/>
 <path d="M540 870 c0 -5 5 -10 10 -10 6 0 10 5 10 10 0 6 -4 10 -10 10 -5 0 -10 -4 -10 -10z"/>
 <path d="M960 600 c0 -5 7 -10 15 -10 8 0 15 5 15 10 0 6 -7 10 -15 10 -8 0 -15 -4 -15 -10z"/>
 <path d="M490 451 c0 -5 5 -13 10 -16 6 -3 10 -2 10 4 0 5 -4 13 -10 16 -5 3 -10 2 -10 -4z"/>
 <path d="M530 361 c0 -5 5 -13 10 -16 6 -3 10 -2 10 4 0 5 -4 13 -10 16 -5 3 -10 2 -10 -4z"/>
 <path d="M560 291 c0 -5 5 -13 10 -16 6 -3 10 -2 10 4 0 5 -4 13 -10 16 -5 3 -10 2 -10 -4z"/>
 <path d="M670 41 c0 -5 5 -13 10 -16 6 -3 10 -2 10 4 0 5 -4 13 -10 16 -5 3 -10 2 -10 -4z"/>
 </g>
<g id="layer25" fill="#75d900" stroke="none">
 <path d="M707 984 c-3 -3 -6 -81 -6 -173 l-1 -167 60 -44 c62 -45 70 -59 46 -79 -11 -9 -19 -9 -35 1 -12 7 -21 16 -21 20 0 5 -11 8 -25 8 l-25 0 0 -105 c0 -85 -3 -107 -15 -111 -8 -4 -22 -1 -30 6 -12 10 -15 44 -15 181 0 119 -3 170 -12 175 -6 4 -14 2 -16 -5 -3 -8 -13 -22 -23 -32 -11 -11 -19 -23 -19 -29 0 -15 -48 -43 -65 -36 -17 6 -21 36 -5 36 6 0 10 5 10 12 0 7 9 21 20 33 12 11 41 47 66 79 40 53 45 65 44 110 0 28 3 66 6 84 6 31 6 32 -30 32 -78 0 -178 -77 -228 -175 -27 -51 -35 -156 -18 -226 17 -71 227 -550 248 -566 24 -19 96 -16 114 5 16 18 218 471 218 489 0 5 7 24 16 41 8 18 13 36 10 41 -4 5 -2 12 3 16 6 3 10 32 10 65 -1 44 -5 62 -16 69 -10 5 -14 16 -10 30 6 26 -28 84 -58 97 -10 5 -22 20 -25 34 -4 18 -22 32 -60 52 -59 28 -103 41 -113 32z"/>
 </g>

</svg>